<?xml version="1.0" encoding="utf-8"?>
<!-- Generator: Adobe Illustrator 18.1.0, SVG Export Plug-In . SVG Version: 6.00 Build 0)  -->
<svg version="1.1" id="Layer_1" xmlns="http://www.w3.org/2000/svg" xmlns:xlink="http://www.w3.org/1999/xlink" x="0px" y="0px"
	 viewBox="0 0 100 100" enable-background="new 0 0 100 100" xml:space="preserve">
<g>
	<g>
		<path fill="#399BA6" d="M71.8,96.5H28.4c-3.7,0-6.6-2.9-6.6-6.6V10.7c0-3.6,2.9-6.6,6.6-6.6h43.4c3.6,0,6.6,2.9,6.6,6.6v79.2
			C78.4,93.5,75.4,96.5,71.8,96.5z M28.4,6.4c-2.4,0-4.3,1.9-4.3,4.3v79.2c0,2.5,1.9,4.3,4.3,4.3h43.4c2.4,0,4.3-1.9,4.3-4.3V10.7
			c0-2.4-1.9-4.3-4.3-4.3H28.4z"/>
	</g>
	<g>
		<circle fill="#399BA6" cx="50.2" cy="81" r="4.4"/>
	</g>
	<g>
		<path fill="#399BA6" d="M27.5,51.3V30.7h1.1v20.6H27.5z M28.6,57h-1.1v4.6h1.1V57z M32,62.7v-1.1h-4.6v1.1H32z M32,58.1V57h-3.4
			v1.1H32z M30.9,51.3V30.7H32v20.6H30.9z"/>
		<path fill="#399BA6" d="M34.2,51.3V30.7h1.1v20.6H34.2z M34.2,62.7h1.1V57h-1.1V62.7z M35.4,57v1.1h2.3V57H35.4z M35.4,61.6v1.1
			h2.3v-1.1H35.4z M36.5,51.3V30.7h1.2v20.6H36.5z M37.7,62.7h1.1V57h-1.1V62.7z"/>
		<path fill="#399BA6" d="M41,51.3V30.7h2.3v20.6H41z M41,57h1.1v5.7H41V57z M42.1,62.7v-1.1h3.4v1.1H42.1z M44.4,51.3V30.7h1.1
			v20.6H44.4z M44.4,57h1.1v4.6h-1.1V57z"/>
		<path fill="#399BA6" d="M47.8,51.3V30.7h2.3v20.6H47.8z M47.8,57h1.1v8h-1.1V57z M48.9,58.1V57h2.3v1.1H48.9z M48.9,62.7v-1.1h2.3
			v1.1H48.9z M51.3,51.3V30.7h1.1v20.6H51.3z M51.3,57h1.1v5.7h-1.1V57z"/>
		<path fill="#399BA6" d="M54.6,51.3V30.7h1.1v20.6H54.6z M54.6,62.7h1.1V57h-1.1V62.7z M55.8,57v1.1h2.3V57H55.8z M55.8,61.6v1.1
			h2.3v-1.1H55.8z M56.9,51.3V30.7h1.2v20.6H56.9z M58.1,62.7h1.1V57h-1.1V62.7z"/>
		<path fill="#399BA6" d="M61.4,51.3V30.7h2.3v20.6H61.4z M61.4,62.7h1.1V57h-1.1V62.7z M62.6,57v1.1H66V57H62.6z M64.9,51.3V30.7
			H66v20.6H64.9z M64.9,62.7H66v-4.6h-1.1V62.7z"/>
		<path fill="#399BA6" d="M68.2,51.3V30.7h2.3v20.6H68.2z M69.4,60.4h-1.1V57h1.1V60.4z M72.8,61.6v1.1h-4.6v-1.1H72.8z M72.8,57
			v1.1h-3.4V57H72.8z M72.8,60.4h-3.4v-1.1h3.4V60.4z M71.7,51.3V30.7h1.1v20.6H71.7z M72.8,61.6h-1.1v-1.1h1.1V61.6z"/>
	</g>
</g>
</svg>
