<?xml version="1.0" encoding="utf-8"?>
<!-- Generator: Adobe Illustrator 18.1.0, SVG Export Plug-In . SVG Version: 6.00 Build 0)  -->
<svg version="1.1" id="Layer_1" xmlns="http://www.w3.org/2000/svg" xmlns:xlink="http://www.w3.org/1999/xlink" x="0px" y="0px"
	 viewBox="0 0 120 120" enable-background="new 0 0 120 120" xml:space="preserve">
<path fill="none" stroke="#67C9D2" stroke-width="2" stroke-linecap="round" stroke-linejoin="round" stroke-miterlimit="10" d="
	M111.6,79.3c1.9-1.5,3.8-3,5.7-4.5c0,0,0.1,0,0.1-0.1c0-0.1,0-0.2,0-0.3c-0.4-1-0.8-2.1-1.3-3.1c-0.2-0.5-0.5-1-0.7-1.5
	c-0.1-0.3-0.3-0.4-0.7-0.4c-2.2,0.3-4.5,0.5-6.7,0.8c-0.4,0-0.6-0.1-0.8-0.3c-0.8-1-1.7-1.9-2.5-2.9c-0.1-0.1-0.1-0.4-0.1-0.6
	c0.6-2.2,1.2-4.4,1.8-6.5c0.1-0.3,0.1-0.5-0.2-0.7c-1.4-0.8-2.8-1.7-4.2-2.6c-0.3-0.2-0.5-0.1-0.7,0.1c-1.7,1.5-3.4,3-5,4.5
	c-0.3,0.3-0.5,0.3-0.9,0.2c-1.2-0.3-2.5-0.6-3.7-0.9c-0.3-0.1-0.5-0.2-0.6-0.5c-0.8-2.1-1.6-4.1-2.4-6.2c-0.2-0.5-0.4-0.7-0.9-0.6
	c-0.2,0-0.3,0-0.5-0.1c-1.3,0.1-2.7,0.2-4,0.3c-0.7,0-0.8,0.5-0.9,1.1c-0.4,2-0.9,4.1-1.3,6.1c-0.1,0.3-0.2,0.4-0.5,0.5
	c-1.3,0.5-2.5,1-3.8,1.5c-0.3,0.1-0.4,0.1-0.7-0.1c-1.9-1.2-3.9-2.4-5.8-3.7c-0.3-0.2-0.5-0.2-0.8,0c-1.3,1.1-2.5,2.1-3.8,3.2
	c-0.3,0.2-0.2,0.4-0.1,0.7c0.9,2,1.9,4.1,2.8,6.1c0.1,0.3,0.1,0.5-0.1,0.8c-0.7,1.1-1.4,2.2-2.1,3.3c-0.2,0.3-0.4,0.5-0.8,0.5
	c-2.3,0.1-4.6,0.3-6.9,0.4c-0.3,0-0.4,0.1-0.5,0.4c-0.4,1.5-0.7,3-1.1,4.5c0,0.1-0.1,0.2-0.1,0.3c0,0.1,0,0.2,0,0.3
	c2.1,1.2,4.3,2.3,6.4,3.5c0.2,0.1,0.3,0.4,0.4,0.6c0.1,1.2,0.2,2.5,0.3,3.7c0,0.2-0.1,0.4-0.2,0.5c-1.9,1.5-3.8,3-5.7,4.5
	c0,0-0.1,0-0.1,0.1c0,0.1,0,0.2,0,0.3c0.4,1,0.8,2.1,1.3,3.1c0.2,0.5,0.5,1,0.7,1.5c0.1,0.3,0.3,0.4,0.7,0.4
	c2.2-0.3,4.5-0.5,6.7-0.8c0.4,0,0.6,0.1,0.8,0.3c0.8,1,1.7,1.9,2.5,2.9c0.1,0.1,0.1,0.4,0.1,0.6c-0.6,2.2-1.2,4.4-1.8,6.5
	c-0.1,0.3-0.1,0.5,0.2,0.7c1.4,0.8,2.8,1.7,4.2,2.6c0.3,0.2,0.5,0.1,0.7-0.1c1.7-1.5,3.4-3,5-4.5c0.3-0.3,0.5-0.3,0.9-0.2
	c1.2,0.3,2.5,0.6,3.7,0.9c0.3,0.1,0.5,0.2,0.6,0.5c0.8,2.1,1.6,4.1,2.4,6.2c0.2,0.5,0.4,0.7,0.9,0.6c0.2,0,0.3,0,0.5,0.1
	c1.3-0.1,2.7-0.2,4-0.3c0.7,0,0.8-0.5,0.9-1.1c0.4-2,0.9-4.1,1.3-6.1c0.1-0.3,0.2-0.4,0.5-0.5c1.3-0.5,2.5-1,3.8-1.5
	c0.3-0.1,0.4-0.1,0.7,0.1c1.9,1.2,3.9,2.4,5.8,3.7c0.3,0.2,0.5,0.2,0.8,0c1.3-1.1,2.5-2.1,3.8-3.2c0.3-0.2,0.2-0.4,0.1-0.7
	c-0.9-2-1.9-4.1-2.8-6.1c-0.1-0.3-0.1-0.5,0.1-0.8c0.7-1.1,1.4-2.2,2.1-3.3c0.2-0.3,0.4-0.5,0.8-0.5c2.3-0.1,4.6-0.3,6.9-0.4
	c0.3,0,0.4-0.1,0.5-0.4c0.4-1.5,0.7-3,1.1-4.5c0-0.1,0.1-0.2,0.1-0.3c0-0.1,0-0.2,0-0.3c-2.1-1.2-4.3-2.3-6.4-3.5
	c-0.2-0.1-0.3-0.4-0.4-0.6c-0.1-1.2-0.2-2.5-0.3-3.7C111.4,79.7,111.5,79.4,111.6,79.3z M88.8,98c-7.9,0.6-14.9-5.3-15.6-13.2
	c-0.7-7.9,5.3-15,13.3-15.6c7.9-0.6,14.9,5.2,15.6,13.3C102.7,90.4,96.7,97.4,88.8,98z"/>
<path fill="#67C9D2" d="M44,55.2c-0.4-0.5-0.9-0.9-1.3-1.4c-0.2-0.2-0.2-0.4-0.1-0.6c0.2-1,0.5-1.9,0.7-2.9c0.1-0.3,0.1-0.4,0.4-0.5
	c1.6-0.6,3.2-1.3,4.9-1.9c0.2-0.1,0.3-0.2,0.3-0.4c-0.1-1.2-0.2-2.3-0.3-3.5c0-0.1,0-0.1,0-0.2c0-0.1-0.1-0.1-0.1-0.2
	c-1.8-0.3-3.6-0.6-5.5-1c-0.2,0-0.3-0.2-0.4-0.3c-0.4-0.9-0.8-1.7-1.1-2.6c0-0.1,0-0.3,0-0.4c1-1.6,2-3.1,3-4.6c0,0,0.1-0.1,0.1-0.1
	c0-0.1-0.1-0.1-0.1-0.2c-0.6-0.6-1.1-1.3-1.7-1.9c-0.3-0.3-0.6-0.6-0.9-0.9c-0.2-0.2-0.3-0.2-0.6-0.1c-1.6,0.7-3.1,1.5-4.7,2.2
	c-0.3,0.1-0.4,0.1-0.7,0c-0.8-0.5-1.7-1-2.5-1.5c-0.1-0.1-0.2-0.3-0.2-0.4c-0.1-1.7-0.2-3.4-0.3-5.1c0-0.3-0.1-0.4-0.4-0.4
	c-1.2-0.3-2.5-0.5-3.7-0.8c-0.3-0.1-0.4,0-0.5,0.3c-0.8,1.5-1.7,3-2.5,4.5c-0.1,0.2-0.3,0.3-0.6,0.3c-1,0.1-1.9,0.2-2.9,0.3
	c-0.2,0-0.4,0-0.5-0.2c-1.1-1.3-2.2-2.6-3.2-3.9c-0.2-0.3-0.5-0.4-0.8-0.2c-0.1,0.1-0.2,0.1-0.4,0.1c-0.9,0.4-1.9,0.8-2.8,1.2
	c-0.5,0.2-0.5,0.6-0.4,1c0.2,1.6,0.4,3.2,0.6,4.7c0,0.2,0,0.3-0.2,0.5c-0.8,0.7-1.6,1.3-2.4,2c-0.2,0.1-0.3,0.2-0.5,0.1
	c-1.7-0.4-3.4-0.8-5.1-1.2c-0.3-0.1-0.4,0-0.5,0.2c-0.6,1.1-1.3,2.2-2,3.2c-0.1,0.2-0.1,0.4,0.1,0.5c1.2,1.2,2.3,2.5,3.5,3.7
	c0.2,0.2,0.2,0.4,0.1,0.6c-0.2,1-0.5,1.9-0.7,2.9c-0.1,0.3-0.1,0.4-0.4,0.5C5,47,3.4,47.7,1.8,48.3c-0.2,0.1-0.3,0.2-0.3,0.4
	c0.1,1.2,0.2,2.3,0.3,3.5c0,0.1,0,0.1,0,0.2c0,0.1,0.1,0.1,0.1,0.2c1.8,0.3,3.6,0.6,5.5,1c0.2,0,0.3,0.2,0.4,0.3
	c0.4,0.9,0.8,1.7,1.1,2.6c0,0.1,0,0.3,0,0.4c-1,1.6-2,3.1-3,4.6c0,0-0.1,0.1-0.1,0.1c0,0.1,0.1,0.1,0.1,0.2c0.6,0.6,1.1,1.3,1.7,1.9
	c0.3,0.3,0.6,0.6,0.9,0.9C8.7,65,8.8,65,9,64.9c1.6-0.7,3.1-1.5,4.7-2.2c0.3-0.1,0.4-0.1,0.7,0c0.8,0.5,1.7,1,2.5,1.5
	c0.1,0.1,0.2,0.3,0.2,0.4c0.1,1.7,0.2,3.4,0.3,5.1c0,0.3,0.1,0.4,0.4,0.4c1.2,0.3,2.5,0.5,3.7,0.8c0.3,0.1,0.4,0,0.5-0.3
	c0.8-1.5,1.7-3,2.5-4.5c0.1-0.2,0.3-0.3,0.6-0.3c1-0.1,1.9-0.2,2.9-0.3c0.2,0,0.4,0,0.5,0.2c1.1,1.3,2.2,2.6,3.2,3.9
	c0.2,0.3,0.5,0.4,0.8,0.2c0.1-0.1,0.2-0.1,0.4-0.1c0.9-0.4,1.9-0.8,2.8-1.2c0.5-0.2,0.5-0.6,0.4-1c-0.2-1.6-0.4-3.2-0.6-4.7
	c0-0.2,0-0.3,0.2-0.5c0.8-0.7,1.6-1.3,2.4-2c0.2-0.1,0.3-0.2,0.5-0.1l-0.1,0.1L56,69.8l3.8-6.4L44,55.2z M29.5,58.1
	C23.9,60.5,17.4,58,15,52.4c-2.4-5.6,0.2-12.1,5.7-14.5c5.6-2.4,12,0.1,14.5,5.7C37.7,49.2,35.1,55.7,29.5,58.1z"/>
<path fill="none" stroke="#67C9D2" stroke-width="2" stroke-linecap="round" stroke-linejoin="round" stroke-miterlimit="10" d="
	M49.7,34l2.8,5.5l14.8-6.7l1,1c0.2,0-0.8-1.1-0.7-1c0.6,0.6,1.2,1.2,1.8,1.8c0.1,0.1,0.2,0.2,0.1,0.4c-0.3,1.3-0.5,2.6-0.7,3.8
	c-0.1,0.4-0.1,0.7,0.3,0.9c0.7,0.4,1.5,0.8,2.2,1.2c0.1,0,0.2,0,0.3,0.1c0.3,0.2,0.4,0.1,0.7-0.1c0.9-1,1.9-2,2.9-3
	c0.1-0.1,0.3-0.2,0.4-0.1c0.8,0.1,1.5,0.3,2.3,0.4c0.2,0,0.3,0.1,0.4,0.3c0.6,1.3,1.2,2.5,1.8,3.8c0.1,0.2,0.2,0.3,0.4,0.2
	c1-0.2,2-0.3,3.1-0.4c0.2,0,0.3-0.1,0.3-0.3c0.2-1.4,0.4-2.8,0.6-4.2c0-0.1,0.1-0.3,0.2-0.3c0.7-0.4,1.4-0.7,2.2-1.1
	c0.2-0.1,0.4-0.1,0.6,0c1.2,0.7,2.5,1.4,3.7,2.1c0.2,0.1,0.3,0.1,0.5,0c0.2-0.2,0.5-0.4,0.8-0.7c0.5-0.5,1-1,1.5-1.5
	c0-0.1,0.1-0.1,0.1-0.2c0,0,0,0-0.1-0.1c-0.7-1.3-1.4-2.6-2.2-4c0-0.1,0-0.2,0-0.3c0.4-0.7,0.7-1.4,1.1-2.1c0.1-0.1,0.2-0.2,0.4-0.2
	c1.5-0.2,3-0.3,4.5-0.5c0-0.1,0.1-0.1,0.1-0.2c0-0.1,0-0.1,0-0.2c0.1-0.9,0.3-1.9,0.4-2.8c0-0.2,0-0.3-0.2-0.4
	c-1.3-0.6-2.6-1.3-3.9-1.9c-0.2-0.1-0.3-0.2-0.3-0.5c-0.1-0.8-0.2-1.6-0.4-2.4c0-0.2,0-0.3,0.2-0.5c1-0.9,2.1-1.9,3.1-2.8
	c0.1-0.1,0.2-0.2,0.1-0.4c-0.5-0.9-0.9-1.8-1.4-2.7c-0.1-0.2-0.2-0.2-0.4-0.2c-1.4,0.2-2.8,0.5-4.2,0.7c-0.2,0-0.3,0-0.4-0.1
	c-0.6-0.6-1.2-1.2-1.8-1.8c-0.1-0.1-0.2-0.2-0.1-0.4c0.3-1.3,0.5-2.6,0.7-3.8c0.1-0.4,0.1-0.7-0.3-0.9c-0.7-0.4-1.5-0.8-2.2-1.2
	c-0.1,0-0.2,0-0.3-0.1C86.1,6,85.9,6,85.7,6.3c-0.9,1-1.9,2-2.9,3c-0.1,0.1-0.3,0.2-0.4,0.1C81.6,9.2,80.8,9.1,80,9
	c-0.2,0-0.3-0.1-0.4-0.3c-0.6-1.3-1.2-2.5-1.8-3.8c-0.1-0.2-0.2-0.3-0.4-0.2c-1,0.2-2,0.3-3.1,0.4c-0.2,0-0.3,0.1-0.3,0.3
	c-0.2,1.4-0.4,2.8-0.6,4.2c0,0.1-0.1,0.3-0.2,0.3c-0.7,0.4-1.4,0.7-2.2,1.1c-0.2,0.1-0.4,0.1-0.6,0c-1.2-0.7-2.5-1.4-3.7-2.1
	c-0.2-0.1-0.3-0.1-0.5,0c-0.2,0.2-0.5,0.4-0.8,0.7c-0.5,0.5-1,1-1.5,1.5c0,0.1-0.1,0.1-0.1,0.2c0,0,0,0,0.1,0.1
	c0.7,1.3,1.4,2.6,2.2,4c0,0.1,0,0.2,0,0.3c-0.4,0.7-0.7,1.4-1.1,2.1c-0.1,0.1-0.2,0.2-0.4,0.2c-1.5,0.2-3,0.3-4.5,0.5
	c0,0.1-0.1,0.1-0.1,0.2c0,0.1,0,0.1,0,0.2c-0.1,0.9-0.3,1.9-0.4,2.8c0,0.2,0,0.3,0.2,0.4c1.3,0.6,2.6,1.3,3.9,1.9
	c0.2,0.1,0.3,0.2,0.3,0.5c0.1,0.8,0.2,1.6,0.4,2.4c0,0.2,0,0.3-0.2,0.5c-0.4,0.3-0.8,0.7-1.2,1.1L49.7,34z M71,19.3
	c2.4-4.5,7.8-6.1,12.2-3.8c4.4,2.3,6.1,7.8,3.8,12.2c-2.3,4.4-7.8,6.1-12.2,3.8C70.4,29.2,68.7,23.8,71,19.3z"/>
</svg>
