<?xml version="1.0" encoding="utf-8"?>
<!-- Generator: Adobe Illustrator 18.1.0, SVG Export Plug-In . SVG Version: 6.00 Build 0)  -->
<svg version="1.1" id="Layer_1" xmlns="http://www.w3.org/2000/svg" xmlns:xlink="http://www.w3.org/1999/xlink" x="0px" y="0px"
	 viewBox="0 0 120 120" enable-background="new 0 0 120 120" xml:space="preserve">
<g>
	<path fill="none" stroke="#66C9D2" stroke-width="2" stroke-linecap="round" stroke-linejoin="round" stroke-miterlimit="10" d="
		M51.7,58.2l-0.3-0.3l-0.3,0.3c-0.5,0.5-1,1-1.1,1.3c-0.2,0.2-0.3,0.3-0.3,0.3c-2.9,2.1-8.4,4-10.5,4.7c-2.4,1-3.7,2.4-4,2.7
		C30.6,74.2,30,89.4,30,89.6c0,2.1,0.6,2.7,0.8,2.9c10.1,4.5,26.1,5.6,27.8,5.8h0.5c0.6,0,1.3,0,2.1,0h0.2l0,0c0.2,0,0.2,0,0.3,0
		h0.2l0,0c2.9-0.2,17.5-1.3,27.3-5.8c0.2-0.2,0.8-0.6,0.8-2.9c0-1.6-0.8-15.8-5.1-22.4c0,0-1.3-1.6-4-2.6l-0.5-0.2
		c-2.9-1.4-5.5-2.3-5.6-2.3c-0.5-0.2-1.1-0.3-1.6-0.6c-0.6-0.3-1.1-0.6-1.6-0.8l-0.2-0.2l0,0L70.5,60c-0.3-0.2-1.3-0.8-1.8-1.3
		l-0.5-0.3l-0.2,0.2"/>
	<path fill="none" stroke="#66C9D2" stroke-width="2" stroke-linecap="round" stroke-linejoin="round" stroke-miterlimit="10" d="
		M47.5,47.1c0.2,0.2,0.3,0.5,0.3,0.6c1.1,6.9,6.9,13.5,11.9,13.5c6,0,11.7-7.2,12.7-13.5c0-0.3,0.2-0.5,0.3-0.6
		c0.5-0.5,0.8-1.1,0.8-1.9c0.6-2.4,0.5-3.7,0.3-4.2l-0.2-0.2c-0.2-0.3-0.3-0.6-0.2-1c0.8-2.9,1.6-8.5-1.6-12.2
		c-0.3-0.5-2.3-2.7-6.1-3.9L63.8,23c-3.2-1-5.3-1.3-5.5-1.3h-0.2c-0.2,0-0.3,0-0.5,0.2h-0.2l0,0h-1h-0.2c-0.5,0-0.8,0.2-1.1,0.3
		c-1.1,0.5-6.4,2.9-8.2,8.4c-0.2,0.6-0.8,3.1,0.2,9.2c0,0.5-0.2,1-0.5,1.3l-0.2,0.2c-0.3,0.6-0.3,2.1,0.2,3.9
		C46.9,46,47.2,46.6,47.5,47.1z"/>
</g>
</svg>
