<?xml version="1.0" encoding="utf-8"?>
<!-- Generator: Adobe Illustrator 18.1.0, SVG Export Plug-In . SVG Version: 6.00 Build 0)  -->
<svg version="1.1" id="Layer_1" xmlns="http://www.w3.org/2000/svg" xmlns:xlink="http://www.w3.org/1999/xlink" x="0px" y="0px"
	 viewBox="0 0 120 120" enable-background="new 0 0 120 120" xml:space="preserve">
<circle fill="#65C9D2" cx="51" cy="86.9" r="2.4"/>
<path fill="none" stroke="#65C9D2" stroke-width="2" stroke-linecap="round" stroke-linejoin="round" stroke-miterlimit="10" d="
	M77,40.4V28.8c0-2-1.6-3.6-3.6-3.6H28.6c-2,0-3.6,1.6-3.6,3.6v62.3c0,2,1.6,3.6,3.6,3.6h32.9"/>
<path fill="none" stroke="#65C9D2" stroke-width="2" stroke-linecap="round" stroke-linejoin="round" stroke-miterlimit="10" d="
	M92,94.8H68.1c-1.7,0-3-1.3-3-3V48.2c0-1.6,1.3-3,3-3H92c1.7,0,3,1.4,3,3v43.6C95,93.4,93.7,94.8,92,94.8z"/>
<circle fill="#65C9D2" cx="80.1" cy="86.9" r="2.4"/>
</svg>
