<?xml version="1.0" encoding="utf-8"?>
<!-- Generator: Adobe Illustrator 18.1.0, SVG Export Plug-In . SVG Version: 6.00 Build 0)  -->
<svg version="1.1" id="Layer_1" xmlns="http://www.w3.org/2000/svg" xmlns:xlink="http://www.w3.org/1999/xlink" x="0px" y="0px"
	 viewBox="0 0 100 100" enable-background="new 0 0 100 100" xml:space="preserve">
<g id="BoWrsU.tif_1_">
	<g>
		<path fill="#399BA6" d="M92.9,87.8c0,0-0.6-0.8-0.9-1.2c-6.5-7.3-13.1-14.5-19.6-21.8c-2.8-3.1-5.5-6.3-8.2-9.4
			c0.9-1,1.8-1.9,2.6-2.8c1.6-2,1.8-4.2,0.9-6.5c-0.6-1.6-2.4-2.5-4.2-2.1c-2.6,0.6-5.1,1.8-7.2,3.4c-4.9,3.8-9.3,8-12.8,13
			c-0.6,0.9-1.1,1.9-1.6,2.9c-0.5,1.2-0.4,2.5,0.2,3.7c1.5,3.1,3.9,5.2,6.8,6.8c8.7,4.5,22.5,5.1,22.5,5.1s-17-2.5-21.4-11.5
			c-1.7-3.2,3.6-4.9,5-5.7c1.8,1.6,13,10,16.7,12.5c5.8,3.9,19.9,12.9,21,13.6C92.9,87.8,92.9,87.8,92.9,87.8z"/>
		<path fill="#399BA6" d="M59.2,12.9c-1.9,0.3-3.7,0.8-5.4,1.6c-3.2,1.6-6.1,3.5-7.9,6.6c-0.6,1.1-3,4.7-0.3,7.4
			c1.5,1.5,4.3,0.5,5.4-0.6c1.5-1.4,3-2.9,4.5-4.2c0.9-0.8,1.9-1.6,2.9-2.2c1.7-1,3.4-0.8,5,0.4c1.3,1,2.1,2.3,2.9,3.7
			c1.5,2.7,2.4,5.6,3.2,8.6c0.5,1.8,0.9,3.6,1.3,5c0.6-3.6,1.1-7.5,0.7-11.5c-0.4-3.8-1.2-7.3-3.6-10.4c-1.6-2-3.4-3.7-6.1-4.3
			c-0.3-0.1-0.6-0.1-0.8-0.2C60.4,12.9,59.8,12.9,59.2,12.9z"/>
		<path fill="#399BA6" d="M9.6,41.8c2.3,8.9,14.1,12.7,18.7,10c4.6-2.7,5.2-7.1,6-11.6c0.4-2.1,0.1-4.1-1.4-5.9
			c-1-1.2-2.1-1.4-3.5-0.6c-1.1,0.7-1.8,1.8-2.2,2.9c-0.6,1.6-1.2,3.3-1.8,4.9c-0.5,1.5-0.8,4.6-4.2,4.6s-9.9-5.6-13.9-16.5
			C6.7,28.6,7.3,32.9,9.6,41.8z"/>
	</g>
	<circle fill="#399BA6" cx="32.3" cy="22" r="7.7"/>
</g>
</svg>
