<?xml version="1.0" encoding="utf-8"?>
<!-- Generator: Adobe Illustrator 18.1.0, SVG Export Plug-In . SVG Version: 6.00 Build 0)  -->
<svg version="1.1" id="Layer_1" xmlns="http://www.w3.org/2000/svg" xmlns:xlink="http://www.w3.org/1999/xlink" x="0px" y="0px"
	 viewBox="0 0 120 120" enable-background="new 0 0 120 120" xml:space="preserve">
<path fill="none" stroke="#FFFFFF" stroke-width="2" stroke-linecap="round" stroke-linejoin="round" stroke-miterlimit="10" d="
	M56.8,74.4c0.7,2.2,2.8,3.9,5.2,3.9h9.7l-6.6,15.4l18-15.4h21.2c3,0,5.5-2.5,5.5-5.5V44.2c0-3-2.5-5.5-5.5-5.5H74.5"/>
<path fill="white" stroke="#FFFFFF" stroke-width="2" stroke-linecap="round" stroke-linejoin="round" stroke-miterlimit="10" d="
	M67.8,26.4H16.5c-3.7,0-6.7,3-6.7,6.7v34.6c0,3.7,3,6.7,6.7,6.7h11.8l-8,18.7l21.9-18.7h25.6c3.7,0,6.7-3,6.7-6.7V33.1
	C74.5,29.4,71.5,26.4,67.8,26.4z"/>
<rect x="23.4" y="45.9" fill="white" width="41.1" height="15.5"/>
<text transform="matrix(1 0 0 1 23.4038 56.397)" fill="#65C9D2" font-family="'HelveticaNeue-Medium'" font-size="14.656">FREE</text>
<rect x="80.5" y="50.6" fill="none" width="27.8" height="15.5"/>
<text transform="matrix(1 0 0 1 80.4736 61.0582)" fill="#FFFFFF" font-family="'HelveticaNeue-Medium'" font-size="14.656">. . .</text>
</svg>
