<?xml version="1.0" encoding="utf-8"?>
<!-- Generator: Adobe Illustrator 18.1.0, SVG Export Plug-In . SVG Version: 6.00 Build 0)  -->
<svg version="1.1" id="Layer_1" xmlns="http://www.w3.org/2000/svg" xmlns:xlink="http://www.w3.org/1999/xlink" x="0px" y="0px"
	 viewBox="0 0 120 120" enable-background="new 0 0 120 120" xml:space="preserve">
<path fill="none" stroke="#67C9D2" stroke-width="2" stroke-linecap="round" stroke-linejoin="round" stroke-miterlimit="10" d="
	M112.6,91.7c2-0.9,4-1.8,6-2.7c0,0,0.1,0,0.1,0c0-0.1,0-0.2,0-0.3c-0.1-1-0.3-2-0.4-3c-0.1-0.5-0.2-1-0.3-1.5c0-0.3-0.2-0.4-0.5-0.5
	c-2-0.3-4.1-0.6-6.1-0.8c-0.3,0-0.5-0.2-0.7-0.5c-0.5-1-1.1-2.1-1.6-3.1c-0.1-0.1,0-0.4,0.1-0.6c1-1.8,2-3.6,3-5.4
	c0.2-0.3,0.2-0.4-0.1-0.7c-1.1-1.1-2.1-2.1-3.2-3.2c-0.2-0.2-0.4-0.2-0.7-0.1c-1.8,1-3.6,1.9-5.4,2.9c-0.3,0.2-0.5,0.1-0.8,0
	c-1-0.5-2-1.1-3.1-1.6c-0.2-0.1-0.4-0.3-0.4-0.5c-0.3-2-0.5-4-0.8-6c-0.1-0.5-0.2-0.7-0.7-0.7c-0.1,0-0.3-0.1-0.4-0.2
	c-1.2-0.2-2.4-0.4-3.6-0.6c-0.6-0.1-0.8,0.3-1.1,0.8c-0.8,1.7-1.7,3.4-2.5,5.1c-0.1,0.2-0.3,0.3-0.5,0.4c-1.2,0.2-2.5,0.3-3.7,0.5
	c-0.3,0-0.4,0-0.6-0.2c-1.4-1.5-2.9-3-4.3-4.5c-0.2-0.2-0.4-0.3-0.7-0.2c-1.3,0.7-2.7,1.3-4,2c-0.3,0.1-0.3,0.3-0.3,0.6
	c0.4,2,0.8,4,1.1,6c0.1,0.3,0,0.5-0.2,0.7c-0.9,0.8-1.7,1.6-2.5,2.5c-0.2,0.2-0.4,0.3-0.8,0.3c-2-0.4-4.1-0.8-6.1-1.2
	c-0.3-0.1-0.4,0-0.5,0.3c-0.6,1.2-1.3,2.5-2,3.7c0,0.1-0.1,0.1-0.1,0.2c0,0.1,0,0.2,0,0.3c1.6,1.5,3.2,3,4.8,4.5
	c0.1,0.1,0.2,0.4,0.2,0.6c-0.2,1.1-0.3,2.2-0.5,3.4c0,0.1-0.2,0.3-0.3,0.4c-2,0.9-4,1.8-6,2.7c0,0-0.1,0-0.1,0c0,0.1,0,0.2,0,0.3
	c0.1,1,0.3,2,0.4,3c0.1,0.5,0.2,1,0.3,1.5c0,0.3,0.2,0.4,0.5,0.5c2,0.3,4.1,0.6,6.1,0.8c0.3,0,0.5,0.2,0.7,0.5
	c0.5,1,1.1,2.1,1.6,3.1c0.1,0.1,0,0.4-0.1,0.6c-1,1.8-2,3.6-3,5.4c-0.2,0.3-0.2,0.4,0.1,0.7c1.1,1.1,2.1,2.1,3.2,3.2
	c0.2,0.2,0.4,0.2,0.7,0.1c1.8-1,3.6-1.9,5.4-2.9c0.3-0.2,0.5-0.1,0.8,0c1,0.5,2,1.1,3.1,1.6c0.2,0.1,0.4,0.3,0.4,0.5
	c0.3,2,0.5,4,0.8,6c0.1,0.5,0.2,0.7,0.7,0.7c0.1,0,0.3,0.1,0.4,0.2c1.2,0.2,2.4,0.4,3.6,0.6c0.6,0.1,0.8-0.3,1.1-0.8
	c0.8-1.7,1.7-3.4,2.5-5.1c0.1-0.2,0.3-0.3,0.5-0.4c1.2-0.2,2.5-0.3,3.7-0.5c0.3,0,0.4,0,0.6,0.2c1.4,1.5,2.9,3,4.3,4.5
	c0.2,0.2,0.4,0.3,0.7,0.2c1.3-0.7,2.7-1.3,4-2c0.3-0.1,0.3-0.3,0.3-0.6c-0.4-2-0.8-4-1.1-6c-0.1-0.3,0-0.5,0.2-0.7
	c0.9-0.8,1.7-1.6,2.5-2.5c0.2-0.2,0.4-0.3,0.8-0.3c2,0.4,4.1,0.8,6.1,1.2c0.3,0.1,0.4,0,0.5-0.3c0.6-1.2,1.3-2.5,2-3.7
	c0-0.1,0.1-0.1,0.1-0.2c0-0.1,0-0.2,0-0.3c-1.6-1.5-3.2-3-4.8-4.5c-0.1-0.1-0.2-0.4-0.2-0.6c0.2-1.1,0.3-2.2,0.5-3.4
	C112.3,92,112.5,91.8,112.6,91.7z M88.4,103.2c-7.1-1.2-12-7.9-10.8-15.1c1.2-7.1,8-12,15.1-10.9c7.1,1.2,12,7.8,10.9,15.1
	C102.4,99.5,95.6,104.3,88.4,103.2z"/>
<path fill="#67C9D2" d="M73.1,33.8c2.4-2.1,4.8-4.2,7.2-6.3c0,0,0.1-0.1,0.2-0.1c0-0.1,0-0.3-0.1-0.4c-0.6-1.3-1.2-2.7-1.9-4
	c-0.3-0.7-0.7-1.3-1-1.9c-0.2-0.4-0.4-0.5-0.9-0.4c-2.9,0.5-5.9,0.9-8.8,1.4c-0.5,0.1-0.8,0-1.1-0.4c-1.2-1.2-2.3-2.4-3.5-3.7
	c-0.2-0.2-0.2-0.6-0.2-0.8c0.6-2.9,1.3-5.8,2-8.7c0.1-0.4,0-0.7-0.4-0.9c-1.9-1-3.8-2-5.7-3.1c-0.4-0.2-0.7-0.1-1,0.2
	c-2.1,2.1-4.2,4.1-6.3,6.2c-0.3,0.3-0.7,0.4-1.1,0.3c-1.6-0.3-3.2-0.6-4.9-0.9c-0.4-0.1-0.6-0.2-0.8-0.6c-1.2-2.6-2.4-5.3-3.5-7.9
	c-0.3-0.6-0.6-0.9-1.2-0.7c-0.2,0-0.4,0-0.7,0c-1.8,0.2-3.5,0.5-5.3,0.7c-0.9,0.1-1,0.7-1.2,1.5c-0.4,2.7-0.9,5.4-1.3,8.1
	c-0.1,0.4-0.2,0.6-0.6,0.7c-1.6,0.7-3.3,1.5-4.9,2.2c-0.3,0.2-0.6,0.2-0.9,0c-2.6-1.5-5.2-3-7.9-4.5c-0.4-0.2-0.7-0.2-1,0.1
	c-1.6,1.5-3.2,2.9-4.8,4.4c-0.3,0.3-0.3,0.5-0.1,0.9c1.4,2.6,2.7,5.2,4.1,7.8c0.2,0.4,0.2,0.7-0.1,1.1c-0.9,1.5-1.7,2.9-2.5,4.5
	c-0.2,0.4-0.5,0.7-1,0.7c-3,0.3-6,0.6-9,0.9c-0.4,0-0.6,0.2-0.6,0.6c-0.4,2-0.8,3.9-1.2,5.9c0,0.1-0.1,0.2-0.1,0.4
	c0,0.1,0,0.3,0.1,0.4c2.9,1.4,5.7,2.8,8.6,4.3c0.2,0.1,0.5,0.5,0.5,0.7c0.3,1.6,0.5,3.2,0.7,4.9c0,0.2-0.1,0.5-0.2,0.7
	C8.4,50,6,52.1,3.6,54.2c0,0-0.1,0.1-0.2,0.1c0,0.1,0,0.3,0.1,0.4c0.6,1.3,1.2,2.7,1.9,4c0.3,0.7,0.7,1.3,1,1.9
	C6.6,61,6.8,61.1,7.3,61c2.9-0.5,5.9-0.9,8.8-1.4c0.5-0.1,0.8,0,1.1,0.4c1.2,1.2,2.3,2.4,3.5,3.7c0.2,0.2,0.2,0.6,0.2,0.8
	c-0.6,2.9-1.3,5.8-2,8.7c-0.1,0.4,0,0.7,0.4,0.9c1.9,1,3.8,2,5.7,3.1c0.4,0.2,0.7,0.1,1-0.2c2.1-2.1,4.2-4.1,6.3-6.2
	c0.3-0.3,0.7-0.4,1.1-0.3c1.6,0.3,3.2,0.6,4.9,0.9c0.4,0.1,0.6,0.2,0.8,0.6c1.2,2.6,2.4,5.3,3.5,7.9c0.3,0.6,0.6,0.9,1.2,0.7
	c0.2,0,0.4,0,0.7,0c1.8-0.2,3.5-0.5,5.3-0.7c0.9-0.1,1-0.7,1.2-1.5c0.4-2.7,0.9-5.4,1.3-8.1c0.1-0.4,0.2-0.6,0.6-0.7
	c1.6-0.7,3.3-1.5,4.9-2.2c0.3-0.2,0.6-0.2,0.9,0c2.6,1.5,5.2,3,7.9,4.5c0.4,0.2,0.7,0.2,1-0.1c1.6-1.5,3.2-2.9,4.8-4.4
	c0.3-0.3,0.3-0.5,0.1-0.9c-1.4-2.6-2.7-5.2-4.1-7.8C68,58.3,68,58,68.2,57.6c0.9-1.5,1.7-2.9,2.5-4.5c0.2-0.4,0.5-0.7,1-0.7
	c3-0.3,6-0.6,9-0.9c0.4,0,0.6-0.2,0.6-0.6c0.4-2,0.8-3.9,1.2-5.9c0-0.1,0.1-0.2,0.1-0.4c0-0.1,0-0.3-0.1-0.4
	c-2.9-1.4-5.7-2.8-8.6-4.3c-0.2-0.1-0.5-0.5-0.5-0.7c-0.3-1.6-0.5-3.2-0.7-4.9C72.9,34.2,73,33.9,73.1,33.8z M44.3,59.6
	c-10.4,1.3-19.9-6.1-21.2-16.4c-1.3-10.4,6.1-20,16.5-21.3c10.4-1.3,19.9,5.9,21.3,16.4C62.1,48.8,54.7,58.3,44.3,59.6z"/>
</svg>
