<?xml version="1.0" encoding="utf-8"?>
<!-- Generator: Adobe Illustrator 18.1.0, SVG Export Plug-In . SVG Version: 6.00 Build 0)  -->
<svg version="1.1" id="Layer_1" xmlns="http://www.w3.org/2000/svg" xmlns:xlink="http://www.w3.org/1999/xlink" x="0px" y="0px"
	 viewBox="0 0 120 120" enable-background="new 0 0 120 120" xml:space="preserve">
<g id="global">
	<g>
		<g>
			<path fill="none" stroke="#FFFFFF" stroke-width="8" stroke-linecap="round" stroke-linejoin="round" stroke-miterlimit="10" d="
				M60.6,25.9C46.5,25.9,35,37.3,35,51.4s11.4,25.5,25.6,25.5s25.6-11.4,25.6-25.5C86.2,37.2,74.8,25.9,60.6,25.9z M72.1,87.9H47.9
				c-2.1,0-3.9,1.7-3.9,3.8v5.1c0,0.5,0.1,0.9,0.2,1.2h31.5c0.2-0.4,0.2-0.9,0.2-1.2v-5.1C75.9,89.6,74.2,87.9,72.1,87.9z"/>
		</g>
	</g>
	<g>
		<path fill="none" stroke="#FFFFFF" stroke-width="8" stroke-linecap="round" stroke-linejoin="round" stroke-miterlimit="10" d="
			M35.1,22l5.1,5.1c0,0-22.1,25-1.3,45.8c20.9,20.8,46-1.2,46-1.2l5.1,5.1"/>
	</g>
	<path fill="none" stroke="#FFFFFF" stroke-width="8" stroke-linecap="round" stroke-linejoin="round" stroke-miterlimit="10" d="
		M60,81.9v6.3"/>
</g>
</svg>
