<?xml version="1.0" encoding="utf-8"?>
<!-- Generator: Adobe Illustrator 18.1.0, SVG Export Plug-In . SVG Version: 6.00 Build 0)  -->
<svg version="1.1" id="Layer_1" xmlns="http://www.w3.org/2000/svg" xmlns:xlink="http://www.w3.org/1999/xlink" x="0px" y="0px"
	 viewBox="0 0 120 120" enable-background="new 0 0 120 120" xml:space="preserve">
<path fill="none" stroke="#FFFFFF" stroke-width="4" stroke-linecap="round" stroke-linejoin="round" stroke-miterlimit="10" d="
	M21.9,85c0,0,0.1-33.4,32.4-42"/>
<path fill="none" stroke="#FFFFFF" stroke-width="2" stroke-linecap="round" stroke-linejoin="round" stroke-miterlimit="10" d="
	M10,84.9c0,0,0.1-43.2,41.9-54.4"/>
<path fill="#FFFFFF" d="M67.4,80.5c-2.5,0-4.5,2-4.5,4.5c0,2.5,2,4.5,4.5,4.5c2.5,0,4.5-2,4.5-4.5C71.9,82.5,69.9,80.5,67.4,80.5z
	 M67.4,86.7c-1,0-1.8-0.8-1.8-1.8c0-1,0.8-1.8,1.8-1.8c1,0,1.8,0.8,1.8,1.8C69.2,85.9,68.4,86.7,67.4,86.7z"/>
<circle fill="#FFFFFF" cx="108.2" cy="84.9" r="1.8"/>
<circle fill="#FFFFFF" cx="98" cy="57.4" r="1.8"/>
<circle fill="#FFFFFF" cx="105.6" cy="69.8" r="1.8"/>
<circle fill="#FFFFFF" cx="85.4" cy="48.1" r="1.8"/>
<circle fill="#FFFFFF" cx="70.6" cy="43" r="1.8"/>
<line fill="none" stroke="#FFFFFF" stroke-width="2" stroke-linecap="round" stroke-linejoin="round" stroke-miterlimit="10" x1="41.7" y1="66.9" x2="64.9" y2="83.2"/>
</svg>
