<?xml version="1.0" encoding="utf-8"?>
<!-- Generator: Adobe Illustrator 18.1.0, SVG Export Plug-In . SVG Version: 6.00 Build 0)  -->
<svg version="1.1" id="Layer_1" xmlns="http://www.w3.org/2000/svg" xmlns:xlink="http://www.w3.org/1999/xlink" x="0px" y="0px"
	 viewBox="0 0 120 120" enable-background="new 0 0 120 120" xml:space="preserve">
<path fill="none" stroke="#FFFFFF" stroke-width="2" stroke-linecap="round" stroke-linejoin="round" stroke-miterlimit="10" d="
	M97.9,52.4c0-0.2,0.1-0.3,0.2-0.4c0.3-0.3,0.5-0.7,0.5-1.2c0.4-1.5,0.3-2.3,0.2-2.6l-0.1-0.1c-0.1-0.2-0.2-0.4-0.1-0.6
	c0.5-1.8,1-5.3-1-7.6c-0.2-0.3-1.4-1.7-3.8-2.4L92.4,37c-2-0.6-3.3-0.8-3.4-0.8h-0.1c-0.1,0-0.2,0-0.3,0.1h-0.1l0,0h-0.6h-0.1
	c-0.3,0-0.5,0.1-0.7,0.2c-0.7,0.3-4,1.8-5.1,5.2c-0.1,0.4-0.5,1.9,0.1,5.7c0,0.3-0.1,0.6-0.3,0.8l-0.1,0.1c-0.2,0.4-0.2,1.3,0.1,2.4
	c0.1,0.6,0.3,1,0.5,1.3c0.1,0.1,0.2,0.3,0.2,0.4c0.7,4.3,4.3,8.4,7.4,8.4C93.7,60.8,97.2,56.4,97.9,52.4z M84.9,58.9l-0.2-0.2
	l-0.2,0.2c-0.3,0.3-0.6,0.6-0.7,0.8c-0.1,0.1-0.2,0.2-0.2,0.2c-1.8,1.3-5.2,2.5-6.5,2.9c-1.5,0.6-2.3,1.5-2.5,1.7
	c-2.8,4.3-3.2,13.8-3.2,13.9c0,1.3,0.4,1.7,0.5,1.8c6.3,2.8,16.2,3.5,17.3,3.6h0.3c0.4,0,0.8,0,1.3,0h0.1l0,0c0.1,0,0.1,0,0.2,0h0.1
	l0,0c1.8-0.1,10.9-0.8,17-3.6c0.1-0.1,0.5-0.4,0.5-1.8c0-1-0.5-9.8-3.2-13.9c0,0-0.8-1-2.5-1.6l-0.3-0.1c-1.8-0.9-3.4-1.4-3.5-1.4
	c-0.3-0.1-0.7-0.2-1-0.4c-0.4-0.2-0.7-0.4-1-0.5l-0.1-0.1l0,0L96.6,60c-0.2-0.1-0.8-0.5-1.1-0.8L95.2,59L95,59.1"/>
<g>
	<path fill="none" stroke="#FFFFFF" stroke-width="2" stroke-linecap="round" stroke-linejoin="round" stroke-miterlimit="10" d="
		M24.6,58.9l-0.2-0.2l-0.2,0.2c-0.3,0.3-0.6,0.6-0.7,0.8c-0.1,0.1-0.2,0.2-0.2,0.2c-1.8,1.3-5.2,2.5-6.5,2.9
		c-1.5,0.6-2.3,1.5-2.5,1.7c-2.8,4.3-3.2,13.8-3.2,13.9c0,1.3,0.4,1.7,0.5,1.8c6.3,2.8,16.2,3.5,17.3,3.6h0.3c0.4,0,0.8,0,1.3,0h0.1
		l0,0c0.1,0,0.1,0,0.2,0h0.1l0,0c1.8-0.1,10.9-0.8,17-3.6c0.1-0.1,0.5-0.4,0.5-1.8c0-1-0.5-9.8-3.2-13.9c0,0-0.8-1-2.5-1.6l-0.3-0.1
		c-1.8-0.9-3.4-1.4-3.5-1.4c-0.3-0.1-0.7-0.2-1-0.4c-0.4-0.2-0.7-0.4-1-0.5l-0.1-0.1l0,0L36.3,60c-0.2-0.1-0.8-0.5-1.1-0.8L34.9,59
		l-0.1,0.1"/>
	<path fill="none" stroke="#FFFFFF" stroke-width="2" stroke-linecap="round" stroke-linejoin="round" stroke-miterlimit="10" d="
		M22,52c0.1,0.1,0.2,0.3,0.2,0.4c0.7,4.3,4.3,8.4,7.4,8.4c3.7,0,7.3-4.5,7.9-8.4c0-0.2,0.1-0.3,0.2-0.4c0.3-0.3,0.5-0.7,0.5-1.2
		c0.4-1.5,0.3-2.3,0.2-2.6l-0.1-0.1c-0.1-0.2-0.2-0.4-0.1-0.6c0.5-1.8,1-5.3-1-7.6c-0.2-0.3-1.4-1.7-3.8-2.4L32.1,37
		c-2-0.6-3.3-0.8-3.4-0.8h-0.1c-0.1,0-0.2,0-0.3,0.1h-0.1l0,0h-0.6h-0.1c-0.3,0-0.5,0.1-0.7,0.2c-0.7,0.3-4,1.8-5.1,5.2
		c-0.1,0.4-0.5,1.9,0.1,5.7c0,0.3-0.1,0.6-0.3,0.8l-0.1,0.1c-0.2,0.4-0.2,1.3,0.1,2.4C21.6,51.3,21.8,51.7,22,52z"/>
</g>
<path fill="#FFFFFF" d="M60.1,41.2c0,0-17.4-12.6-8.5-18.5c5.1-3.4,8.5,3.2,8.5,3.2s3.3-6.6,8.5-3.2C77.3,28.6,60.1,41.2,60.1,41.2"
	/>
<g>
	<g>
		<path fill="#FFFFFF" d="M6.2,86.1c0.6,0.1,1.3,0.3,2,0.5c1.4,0.4,2.2,1,2.7,1.7c0.5,0.8,0.7,1.7,0.4,2.9c-0.3,1.2-0.9,2-1.9,2.5
			c-0.9,0.5-2.3,0.5-3.9,0c-0.7-0.2-1.3-0.5-1.9-0.7C4.8,90.3,5.2,88.9,6.2,86.1z M5.1,92.7c0.2,0.1,0.6,0.3,1,0.4
			c2.2,0.7,3.7-0.1,4.2-2.1c0.4-1.7-0.3-3-2.3-3.6c-0.5-0.2-0.9-0.2-1.1-0.3C6.2,89.3,5.8,90.4,5.1,92.7z"/>
		<path fill="#FFFFFF" d="M12.9,93c-0.3,1.3,0.5,2,1.6,2.2c0.8,0.1,1.2,0.1,1.7,0c0,0.3,0,0.4,0.1,0.7c-0.4,0.1-1.1,0.1-2,0
			c-1.8-0.4-2.7-1.7-2.3-3.2c0.4-1.6,1.6-2.6,3.2-2.2c1.8,0.4,2,1.9,1.9,2.9c0,0.2-0.1,0.3-0.1,0.4C15.3,93.5,14.5,93.4,12.9,93z
			 M16.1,93c0.1-0.6,0-1.6-1.1-1.8c-1-0.2-1.7,0.6-1.9,1.2C14.3,92.6,14.9,92.7,16.1,93z"/>
		<path fill="#FFFFFF" d="M19.1,91.3c0.3,1.2,0.4,1.9,0.7,3.1c0.1,0.5,0.2,1,0.3,1.4l0,0c0.2-0.4,0.4-0.8,0.7-1.3
			c0.6-1.1,0.9-1.7,1.4-2.9c0.4,0,0.6,0.1,1.1,0.1c-1.1,2-1.6,3.1-2.8,5.1c-0.4,0-0.6-0.1-1-0.1c-0.6-2.2-0.9-3.3-1.4-5.6
			C18.4,91.2,18.7,91.2,19.1,91.3z"/>
		<path fill="#FFFFFF" d="M24.5,94.7c-0.1,1.3,0.8,1.9,1.9,2c0.8,0,1.2-0.1,1.6-0.2c0.1,0.3,0.1,0.4,0.2,0.7c-0.4,0.1-1,0.3-2,0.3
			c-1.8-0.1-2.9-1.3-2.7-2.9s1.2-2.8,2.8-2.7c1.8,0.1,2.3,1.6,2.3,2.6c0,0.2,0,0.4,0,0.5C26.9,94.8,26.1,94.8,24.5,94.7z M27.6,94.1
			c0-0.6-0.2-1.6-1.4-1.6c-1,0-1.5,0.8-1.7,1.5C25.8,94.1,26.4,94.1,27.6,94.1z"/>
		<path fill="#FFFFFF" d="M29.9,89.5c0.4,0,0.6,0,1,0c0.1,3.1,0.1,4.7,0.1,7.8c-0.4,0-0.7,0-1.1,0C29.9,94.2,29.9,92.7,29.9,89.5z"
			/>
		<path fill="#FFFFFF" d="M37.9,94.2c0.2,2-1.2,3-2.7,3.1c-1.6,0.1-2.9-0.9-3-2.6c-0.1-1.8,1.1-2.9,2.7-3
			C36.6,91.6,37.8,92.6,37.9,94.2z M33.4,94.6c0.1,1.2,0.8,2,1.9,1.9c1-0.1,1.7-1,1.6-2.2c-0.1-0.9-0.7-2-1.9-1.9
			S33.3,93.6,33.4,94.6z"/>
		<path fill="#FFFFFF" d="M39.1,93.2c-0.1-0.7-0.2-1.2-0.3-1.7c0.4,0,0.5-0.1,0.9-0.1c0.1,0.4,0.1,0.5,0.2,0.9l0,0
			c0.3-0.7,0.9-1.2,1.8-1.3c1.3-0.2,2.5,0.6,2.9,2.2c0.4,1.9-0.7,3.1-2.1,3.3c-0.8,0.1-1.5-0.1-1.9-0.5l0,0c0.2,1.1,0.2,1.7,0.4,2.9
			C40.6,99,40.3,99,39.9,99C39.6,96.6,39.4,95.5,39.1,93.2z M40.4,94.4c0,0.1,0.1,0.3,0.1,0.4c0.3,0.6,1,1,1.8,0.9
			c1.1-0.2,1.6-1.1,1.4-2.3c-0.2-1-0.9-1.8-2-1.7c-0.7,0.1-1.3,0.7-1.4,1.4c0,0.1,0,0.3,0,0.4C40.3,93.9,40.3,94.1,40.4,94.4z"/>
		<path fill="#FFFFFF" d="M46.6,93c0.3,1.3,1.3,1.6,2.4,1.3c0.8-0.2,1.2-0.4,1.5-0.7c0.1,0.2,0.2,0.4,0.4,0.6
			C50.6,94.5,50,94.8,49,95c-1.8,0.5-3.1-0.4-3.4-2s0.4-3,2-3.4c1.8-0.4,2.7,0.9,2.9,1.8c0.1,0.2,0.1,0.3,0.1,0.4
			C49,92.4,48.2,92.6,46.6,93z M49.4,91.6c-0.1-0.6-0.7-1.4-1.8-1.2c-1,0.3-1.3,1.2-1.2,1.9C47.7,92,48.2,91.9,49.4,91.6z"/>
		<path fill="#FFFFFF" d="M51.5,90.5c-0.2-0.6-0.3-1.1-0.5-1.6c0.3-0.1,0.5-0.2,0.9-0.3c0.1,0.4,0.2,0.6,0.3,1l0,0
			c0-0.8,0.5-1.4,1.1-1.6c0.1,0,0.2-0.1,0.3-0.1c0.1,0.3,0.2,0.5,0.3,0.9c-0.1,0-0.2,0-0.3,0.1c-0.7,0.2-1,0.9-0.9,1.6
			c0,0.1,0,0.3,0.1,0.4c0.3,1.1,0.5,1.6,0.9,2.7c-0.4,0.1-0.6,0.2-1,0.3C52.2,92.6,52,91.9,51.5,90.5z"/>
	</g>
</g>
<g>
	<g>
		<path fill="#FFFFFF" d="M83.5,96.2c0.1-1.3,0.2-1.9,0.3-3.1c-0.8-1.8-1.2-2.7-1.9-4.5c0.4,0.1,0.7,0.1,1.1,0.1
			c0.3,0.9,0.5,1.3,0.8,2.2c0.2,0.6,0.4,1.1,0.6,1.6l0,0c0.3-0.5,0.6-0.9,0.9-1.5c0.5-0.8,0.8-1.2,1.2-2c0.4,0,0.7,0,1.1,0.1
			c-1.1,1.7-1.6,2.5-2.8,4.1c-0.1,1.3-0.2,1.9-0.3,3.1C84.1,96.3,83.9,96.2,83.5,96.2z"/>
		<path fill="#FFFFFF" d="M92.7,93.8c0.1,2-1.4,2.9-2.9,2.9c-1.6,0-2.8-1.1-2.8-2.8c0.1-1.8,1.3-2.8,2.9-2.8
			C91.5,91.1,92.6,92.1,92.7,93.8z M88.1,93.8c0,1.2,0.7,2.1,1.7,2.1s1.8-0.9,1.8-2.1c0-0.9-0.5-2-1.7-2
			C88.7,91.8,88.1,92.8,88.1,93.8z"/>
		<path fill="#FFFFFF" d="M99,94.4c0.1,0.5,0.2,1,0.3,1.4c-0.4,0.1-0.6,0.1-1,0.1c-0.1-0.3-0.1-0.5-0.2-0.9l0,0
			c-0.2,0.5-0.8,1.1-1.9,1.2c-0.9,0.1-2.1-0.3-2.2-2.2c-0.1-1.2-0.1-1.9-0.2-3.1c0.4,0,0.6,0,1-0.1c0.1,1.2,0.1,1.8,0.2,2.9
			c0.1,1,0.5,1.7,1.5,1.6c0.7-0.1,1.2-0.6,1.3-1c0-0.1,0.1-0.3,0-0.5c-0.2-1.3-0.2-1.9-0.4-3.2c0.4,0,0.6-0.1,1-0.1
			C98.7,92.1,98.8,92.9,99,94.4z"/>
	</g>
</g>
</svg>
