<?xml version="1.0" encoding="utf-8"?>
<!-- Generator: Adobe Illustrator 18.1.0, SVG Export Plug-In . SVG Version: 6.00 Build 0)  -->
<svg version="1.1" id="Layer_1" xmlns="http://www.w3.org/2000/svg" xmlns:xlink="http://www.w3.org/1999/xlink" x="0px" y="0px"
	 viewBox="0 0 80 80" enable-background="new 0 0 80 80" xml:space="preserve">
<g>
	<path fill="#4FA600" d="M78.4,45.8c0.5,0,0.9,0.5,0.9,1.2v3.2c0,0.7-0.4,1.2-0.9,1.2h-0.3v-5.6C78.1,45.8,78.4,45.8,78.4,45.8z"/>
	<path fill="#4FA600" d="M51,21.3h2.3c0.5,0,0.9,0.4,0.9,0.9v0.1h-4.1v-0.1C50.1,21.7,50.5,21.3,51,21.3z"/>
	<path fill="#4FA600" d="M57.2,21.3h2c0.4,0,0.7,0.4,0.7,0.9v0.1h-3.4v-0.1C56.5,21.7,56.8,21.3,57.2,21.3z"/>
	<path fill="#4FA600" d="M64.1,21.3h2.5c0.5,0,0.9,0.4,0.9,0.9v0.1h-4.3v-0.1C63.2,21.7,63.6,21.3,64.1,21.3z"/>
</g>
<path fill="none" stroke="#4FA600" stroke-miterlimit="10" d="M78.3,28.6v24c0,3.5-2.8,6.3-6.3,6.3H7.1c-3.5,0-6.3-2.8-6.3-6.3v-24
	c0-3.5,2.8-6.3,6.3-6.3h64.8C75.4,22.2,78.3,25.1,78.3,28.6z"/>
<path fill="#4FA600" d="M47,33.5h8v0.7h-8V33.5z"/>
<path fill="#4FA600" d="M47,34.8h5.8v0.7H47V34.8z"/>
<path fill="#4FA600" d="M39.1,32.1v5.8h17.4v-5.8H39.1z M42.7,36.3c-0.8,0-1.4-0.6-1.4-1.4s0.6-1.4,1.4-1.4s1.4,0.6,1.4,1.4
	C44.1,35.7,43.5,36.3,42.7,36.3z M55.7,37.1h-9.4v-4.3h9.4C55.7,32.8,55.7,37.1,55.7,37.1z"/>
<path fill="none" stroke="#4FA600" stroke-miterlimit="10" d="M71.6,37.7v5c0,0.3-0.3,0.6-0.6,0.6c-0.3,0-0.6-0.3-0.6-0.6v-5
	c0-0.3,0.3-0.6,0.6-0.6S71.6,37.3,71.6,37.7z"/>
<path fill="none" stroke="#4FA600" stroke-miterlimit="10" d="M74.8,40.2c0,0.5-0.4,0.9-0.9,0.9S73,40.8,73,40.2s0.4-0.9,0.9-0.9
	C74.4,39.2,74.8,39.7,74.8,40.2z"/>
<path fill="#4FA600" d="M52.4,48.6H26l-14.5,6.8c0,0.5,0.4,0.9,0.9,0.9h53.4c0.5,0,0.9-0.4,0.9-0.9L52.4,48.6z M40.1,49.3l0.2,1.4
	h-1.5l0.2-1.4H40.1z M39.9,55.6h-0.7c-0.5,0-0.9-0.4-0.9-0.9l0.3-2.4h1.9l0.3,2.4C40.8,55.2,40.4,55.6,39.9,55.6z"/>
<path fill="none" stroke="#4FA600" stroke-miterlimit="10" d="M66.9,25.8v29.7c0,0.5-0.4,0.9-0.9,0.9H12.5c-0.5,0-0.9-0.4-0.9-0.9
	V25.8c0-0.5,0.4-0.9,0.9-0.9h53.4C66.4,24.8,66.9,25.1,66.9,25.8z"/>
<path fill="none" stroke="#4FA600" stroke-miterlimit="10" d="M9.3,40.3c0,1.7-1.3,3-3,3s-3-1.3-3-3s1.3-3,3-3S9.3,38.8,9.3,40.3z"
	/>
</svg>
