<?xml version="1.0" encoding="utf-8"?>
<!-- Generator: Adobe Illustrator 18.1.0, SVG Export Plug-In . SVG Version: 6.00 Build 0)  -->
<svg version="1.1" id="Layer_1" xmlns="http://www.w3.org/2000/svg" xmlns:xlink="http://www.w3.org/1999/xlink" x="0px" y="0px"
	 viewBox="-35 0 150 80" enable-background="new -35 0 150 80" xml:space="preserve">
<g>
	<path fill="#4FA600" stroke="#4FA600" stroke-miterlimit="10" d="M-33.4,29.9c0-0.1,0-0.2,0-0.4C-33.4,29.7-33.4,29.8-33.4,29.9z"
		/>
	<g>
		<path fill="#4FA600" stroke="#4FA600" stroke-miterlimit="10" d="M-21.6,50.6c-0.1-0.1-0.2-0.1-0.3-0.2
			C-21.8,50.4-21.7,50.5-21.6,50.6z"/>
		<path fill="#4FA600" stroke="#4FA600" stroke-miterlimit="10" d="M-23.1,49.5c-0.2-0.1-0.3-0.2-0.5-0.4
			C-23.4,49.2-23.2,49.4-23.1,49.5z"/>
		<path fill="#4FA600" stroke="#4FA600" stroke-miterlimit="10" d="M-20.2,51.6C-20.2,51.5-20.2,51.5-20.2,51.6
			C-20.2,51.5-20.2,51.5-20.2,51.6z"/>
		<path fill="#4FA600" stroke="#4FA600" stroke-miterlimit="10" d="M-20.2,51.5c-0.5-0.3-1-0.6-1.4-1
			C-21.1,50.9-20.6,51.2-20.2,51.5z"/>
		<path fill="#4FA600" stroke="#4FA600" stroke-miterlimit="10" d="M-21.9,50.4c-0.4-0.3-0.8-0.6-1.2-0.9
			C-22.7,49.8-22.3,50.1-21.9,50.4z"/>
		<path fill="#4FA600" stroke="#4FA600" stroke-miterlimit="10" d="M28.1,43.4c0-13,17.9-23.7,40.4-24.4C60.2,8.4,41.5,0.8,19.7,0.8
			c-16.6,0-31.4,4.4-41.2,11.3c0.6,0,1.2,0,1.6,0.3c0.7,0.2,1.5,0.1,2.2-0.2c1.1-0.5,2.2-0.4,3.3-0.3c0.9,0,1.8,0.1,2.7-0.3
			c1.2,0,2.4,0,3.6,0c0.2,0.2,0.4,0.2,0.6,0.2c0.8-0.1,1.5,0.3,2.2,0.7c1.1,0.7,1.9,1.7,2.8,2.6c1.2,1.1,1.1,2.3,0.3,3.6
			c-0.6,0.9-0.7,1.8-0.4,2.8c0.6,2.2,1.3,4.3,1.8,6.5c0.3,1,0.4,2-0.3,3c-0.2,0.4-0.2,0.8,0,1.2c0.3,0.5,0.7,1.1,1,1.6
			c0.8,1.2,2,1.8,2.8,2.9c0,0.5,0,1,0,1.5c-0.8,0.6-1.7,1-2.5,1.5c-1,0.6-1.2,1.1-0.8,2c0.5,1.1,0.1,2.9-0.9,3.6
			c-1,0.7-1.2,1.5-0.8,2.6c0.5,1.4-1,3.3-2.5,3.4c-1.7,0.1-3.3-0.4-4.9-0.7c-0.8-0.1-1.3,0.1-1.7,0.8c-0.6,1-1.1,2-1.5,3.1
			c-0.1,0.3-0.3,0.6-0.3,0.9c-0.6-0.2-1.2-0.4-1.8-0.7c-1.9-0.9-3.6-1.9-5.2-2.9c7.1,4.6,16.7,8,27.6,9.5C5.6,66.4,2.4,72.8-2.6,76
			c9.7,0,19.1-7.6,25.6-14.1c5.7-0.2,11.1-0.9,16.2-2C32.3,55.5,28.1,49.8,28.1,43.4z"/>
		<path fill="#4FA600" stroke="#4FA600" stroke-miterlimit="10" d="M-23.5,49.1c-0.3-0.3-0.7-0.5-1-0.8
			C-24.2,48.6-23.9,48.8-23.5,49.1z"/>
		<path fill="#4FA600" stroke="#4FA600" stroke-miterlimit="10" d="M-25.9,47.1c-0.4-0.4-0.9-0.8-1.3-1.3
			C-26.7,46.2-26.3,46.7-25.9,47.1z"/>
		<path fill="#4FA600" stroke="#4FA600" stroke-miterlimit="10" d="M-24.5,48.3c-0.2-0.2-0.4-0.4-0.6-0.6
			C-24.9,47.9-24.7,48.1-24.5,48.3z"/>
		<path fill="#4FA600" stroke="#4FA600" stroke-miterlimit="10" d="M-25.1,47.8c-0.2-0.2-0.5-0.4-0.7-0.7
			C-25.6,47.3-25.4,47.5-25.1,47.8z"/>
	</g>
	<path fill="#4FA600" stroke="#4FA600" stroke-miterlimit="10" d="M-33.2,28.4c0-0.1,0-0.2,0.1-0.3C-33.1,28.2-33.2,28.3-33.2,28.4z
		"/>
	<path fill="#4FA600" stroke="#4FA600" stroke-miterlimit="10" d="M-32.4,25.3C-32.4,25.3-32.4,25.3-32.4,25.3
		C-32.4,25.3-32.4,25.3-32.4,25.3z"/>
	<path fill="#4FA600" stroke="#4FA600" stroke-miterlimit="10" d="M-32.9,26.9c0-0.1,0-0.1,0.1-0.2C-32.8,26.7-32.8,26.8-32.9,26.9z
		"/>
	<path fill="#4FA600" stroke="#4FA600" stroke-miterlimit="10" d="M-33.4,33c0-0.5-0.1-1-0.1-1.6C-33.5,31.9-33.4,32.4-33.4,33z"/>
	<path fill="#4FA600" stroke="#4FA600" stroke-miterlimit="10" d="M-27.2,45.7c-0.4-0.5-0.8-0.9-1.2-1.4
		C-28,44.8-27.6,45.3-27.2,45.7z"/>
	<path fill="#4FA600" stroke="#4FA600" stroke-miterlimit="10" d="M-30.7,41.1c-0.2-0.4-0.4-0.8-0.6-1.2
		C-31.1,40.3-30.9,40.7-30.7,41.1z"/>
	<path fill="#4FA600" stroke="#4FA600" stroke-miterlimit="10" d="M-31.5,39.6c-0.2-0.4-0.4-0.8-0.5-1.2
		C-31.9,38.7-31.7,39.2-31.5,39.6z"/>
	<path fill="#4FA600" stroke="#4FA600" stroke-miterlimit="10" d="M-28.5,44.3c-0.8-0.9-1.5-1.9-2.1-2.9
		C-29.9,42.4-29.2,43.4-28.5,44.3z"/>
	<path fill="#4FA600" stroke="#4FA600" stroke-miterlimit="10" d="M-32.8,36.2c-0.1-0.4-0.2-0.8-0.3-1.2
		C-33,35.4-32.9,35.8-32.8,36.2z"/>
	<path fill="#4FA600" stroke="#4FA600" stroke-miterlimit="10" d="M-33.2,34.5c-0.1-0.4-0.1-0.7-0.2-1.1
		C-33.3,33.8-33.2,34.2-33.2,34.5z"/>
	<path fill="#4FA600" stroke="#4FA600" stroke-miterlimit="10" d="M-32.2,38.1c-0.2-0.5-0.4-1-0.5-1.5
		C-32.5,37.1-32.4,37.6-32.2,38.1z"/>
</g>
<path fill="none" stroke="#4FA600" stroke-miterlimit="10" d="M-12.8,54.3c0.4-1.1,0.9-2.1,1.5-3.1c0.4-0.7,0.9-0.9,1.7-0.8
	c1.6,0.3,3.2,0.8,4.9,0.7c1.5-0.1,3-2,2.5-3.4c-0.4-1.1-0.2-1.9,0.8-2.6c1-0.7,1.4-2.5,0.9-3.6c-0.4-0.9-0.2-1.4,0.8-2
	c0.8-0.5,1.7-0.9,2.5-1.5c0-0.5,0-1,0-1.5c-0.8-1.1-2-1.7-2.8-2.9c-0.3-0.5-0.7-1.1-1-1.6c-0.2-0.4-0.2-0.8,0-1.2c0.7-1,0.6-2,0.3-3
	c-0.5-2.2-1.2-4.3-1.8-6.5c-0.3-1-0.2-1.9,0.4-2.8c0.8-1.3,0.9-2.5-0.3-3.6c-0.9-0.9-1.7-1.9-2.8-2.6c-0.7-0.4-1.4-0.8-2.2-0.7
	c-0.2,0-0.4,0-0.6-0.2c-1.2,0-2.4,0-3.6,0c-0.9,0.4-1.8,0.3-2.7,0.3c-1.1-0.1-2.2-0.2-3.3,0.3c-0.7,0.3-1.5,0.4-2.2,0.2
	c-0.5-0.3-1.1-0.3-1.7-0.3C-29,17.4-33.5,24-33.5,31.4c0,9.3,7.2,17.5,18.5,23.1c0.6,0.3,1.2,0.5,1.8,0.7
	C-13.1,54.9-12.9,54.6-12.8,54.3z"/>
<path fill="none" stroke="#4FA600" stroke-miterlimit="10" d="M28.1,43.4c0-13.4,19.1-24.4,42.6-24.4c23.6,0,42.6,11,42.6,24.4
	c0,11.5-13.9,21.2-32.8,23.7c1.5,4.3,4.1,9.4,8.1,11.9c-7.7,0-15.3-6-20.5-11.3C45.8,66.9,28.1,56.4,28.1,43.4z"/>
<g>
	<g>
		<path fill="#4FA600" d="M42.8,44.3h2.7v-2.7h-2.7V44.3z M49.6,44.3h2.7v-2.7h-2.7V44.3z M56.3,41.7v2.7H59v-2.7H56.3z"/>
	</g>
</g>
<path fill="#4FA600" d="M103.6,27.9c-1.1-0.3-2.3-0.6-3.5-0.3c-0.6,0.1-1.3,0.1-1.8-0.2c-0.9-0.4-1.8-0.3-2.7-0.3
	c-0.8,0-1.5,0.1-2.3-0.2c-1,0-2,0-3,0c-0.1,0.1-0.3,0.2-0.5,0.2c-0.7,0-1.3,0.2-1.9,0.6c-0.9,0.6-1.6,1.4-2.3,2.2
	c-0.9,1-0.9,2-0.2,3c0.5,0.8,0.5,1.5,0.3,2.4c-0.5,1.8-1,3.6-1.5,5.4c-0.2,0.9-0.3,1.7,0.3,2.5c0.2,0.3,0.2,0.7,0,1
	c-0.3,0.5-0.5,0.9-0.8,1.4c-0.6,1-1.6,1.5-2.3,2.4c0,0.4,0,0.9,0,1.3c0.6,0.5,1.4,0.9,2.1,1.3c0.8,0.5,1,0.9,0.7,1.7
	c-0.4,0.9-0.1,2.4,0.7,3c0.9,0.6,1,1.2,0.7,2.2c-0.4,1.2,0.8,2.8,2.1,2.9c1.4,0.1,2.7-0.3,4.1-0.6c0.7-0.1,1.1,0,1.4,0.6
	c0.5,0.8,0.9,1.7,1.2,2.6c0.1,0.3,0.2,0.5,0.3,0.8c11.2-4.4,18.5-11.7,18.5-20.1C113.3,37.6,109.7,32.2,103.6,27.9z"/>
</svg>
