<?xml version="1.0" encoding="utf-8"?>
<!-- Generator: Adobe Illustrator 18.1.0, SVG Export Plug-In . SVG Version: 6.00 Build 0)  -->
<svg version="1.1" id="Layer_2" xmlns="http://www.w3.org/2000/svg" xmlns:xlink="http://www.w3.org/1999/xlink" x="0px" y="0px"
	 viewBox="0 0 80 80" enable-background="new 0 0 80 80" xml:space="preserve">
<path fill="#4FA600" d="M77.5,39.5v-5.1L71.9,31c-0.3-1.5-0.7-3-1.2-4.5l3.1-5.7l-2.5-4.4l-6.5-0.2c-1-1.2-2.1-2.3-3.3-3.3l-0.2-6.5
	L57,4l-5.7,3.1c-1.5-0.5-3-0.9-4.5-1.2l-3.5-5.6h-5.1l-3.4,5.6c-1.5,0.2-3,0.6-4.5,1.1l-5.7-3.1l-4.4,2.5l-0.2,6.5
	c-1.2,1-2.3,2.1-3.3,3.3l-6.5,0.2l-2.5,4.4l3.1,5.8c-0.5,1.5-0.9,3-1.2,4.5l-5.6,3.4v5.1l5.6,3.4c0.3,1.5,0.7,3,1.2,4.5l-3.1,5.8
	l2.5,4.4l6.5,0.2c1,1.2,2.1,2.3,3.3,3.3l0.2,6.5l4.4,2.5l5.7-3.1c0.2,0.1,0.4,0.1,0.6,0.2v-9.8c-6.9-3.6-11.6-10.8-11.6-19
	c0-8.5,4.9-15.7,11.9-19.2c0.1,0,0.2-0.1,0.3-0.1v19.9l9.2,4.3l9.1-4.3V18.8c7.3,3.5,12.2,10.8,12.2,19.3c0,8.3-4.7,15.4-11.7,19V67
	c0.2-0.1,0.5-0.2,0.7-0.3l5.7,3.1l4.4-2.5l0.2-6.5c1.2-1,2.3-2.1,3.3-3.3l6.6-0.1l2.5-4.4l-3.1-5.8c0.5-1.5,0.9-3,1.2-4.5L77.5,39.5
	z"/>
<path fill="none" stroke="#4FA600" stroke-miterlimit="10" d="M62.2,38.2c0-8.6-5-15.8-12.2-19.3v19.9L40.8,43l-9.2-4.3V18.8
	c-0.1,0-0.2,0.1-0.3,0.1c-7.1,3.5-11.9,10.8-11.9,19.2c0,8.3,4.7,15.4,11.6,19v21.9h19.5V57.2C57.5,53.6,62.2,46.4,62.2,38.2z"/>
</svg>
