<?xml version="1.0" encoding="utf-8"?>
<!-- Generator: Adobe Illustrator 18.1.0, SVG Export Plug-In . SVG Version: 6.00 Build 0)  -->
<svg version="1.1" id="Layer_3" xmlns="http://www.w3.org/2000/svg" xmlns:xlink="http://www.w3.org/1999/xlink" x="0px" y="0px"
	 viewBox="0 0 80 80" enable-background="new 0 0 80 80" xml:space="preserve">
<path fill="#4FA600" d="M61.1,35.5L61.1,35.5h-1.5C55.9,45.4,46,48.7,46,48.7C43.7,73,60.1,69.9,60.1,69.9V77H39.9H19.7v-7.1
	c0,0,16.5,3.1,14.1-21.2c0,0-9.9-3.3-13.7-13.1h-1.5l0,0C-0.5,34.6,0.5,8.3,0.5,8.3h18.2V3.2h21.2h21.2v5.1h18.2
	C79.3,8.3,80.3,34.6,61.1,35.5z M18.7,27.5V13.3H5.6C7,27.1,15.2,30.1,18.9,30.5C18.8,29.5,18.7,28.5,18.7,27.5z M61.1,13.3v14.1
	c0,1.1-0.1,2.1-0.2,3c3.7-0.3,11.9-3.3,13.3-17.1H61.1z"/>
</svg>
