<?xml version="1.0" encoding="utf-8"?>
<!-- Generator: Adobe Illustrator 18.1.0, SVG Export Plug-In . SVG Version: 6.00 Build 0)  -->
<svg version="1.1" id="Layer_3" xmlns="http://www.w3.org/2000/svg" xmlns:xlink="http://www.w3.org/1999/xlink" x="0px" y="0px"
	 viewBox="0 0 80 80" enable-background="new 0 0 80 80" xml:space="preserve">
<path fill="#4FA600" d="M33.4,62.4h15.9c2.2,0,4,1.8,4,4s-1.8,4-4,4H33.4c-2.2,0-4-1.8-4-4S31.2,62.4,33.4,62.4z"/>
<path fill="#4FA600" d="M33.4,53.6h15.9c2.2,0,4,1.8,4,4s-1.8,4-4,4H33.4c-2.2,0-4-1.8-4-4C29.5,55.4,31.2,53.6,33.4,53.6z"/>
<path fill="#4FA600" d="M37.7,71.3h7c2.2,0,4,1.8,4,4s-1.8,4-4,4h-7c-2.2,0-4-1.8-4-4C33.8,73,35.5,71.3,37.7,71.3z"/>
<path fill="#4FA600" d="M41.8,26c-5.2,0-9.4,4.2-9.4,9.5c0,1.4,0.3,2.7,0.8,3.9l3.9,14.5c0.2,0.7,0.9,1.1,1.6,0.9s1.1-0.9,0.9-1.6
	l-2.5-9.5c1.4,0.8,3,1.3,4.7,1.3s3.3-0.5,4.7-1.2L44,53.2c-0.2,0.7,0.2,1.4,0.9,1.6c0.7,0.2,1.4-0.2,1.6-0.9l3.8-14.2
	c0.6-1.3,0.9-2.7,0.9-4.2C51.2,30.3,47,26,41.8,26z M45.3,40.6l-0.1,0.1c-0.4,0.3-1,0.2-1.3-0.2l-2.1-2.9l-2.1,2.9
	c-0.1,0-0.1,0-0.1,0c-0.3,0.4-0.9,0.5-1.3,0.2l-5.4-4.2c-0.4-0.3-0.5-0.9-0.2-1.3c0.3-0.4,0.9-0.5,1.3-0.2l4.7,3.5l2.2-3.1
	c0-0.2,0.1-0.4,0.3-0.5c0.2-0.1,0.3-0.2,0.5-0.2h0.1h0.1c0.2,0.1,0.4,0.1,0.5,0.2c0.1,0.2,0.2,0.3,0.3,0.5l2.2,3l4.7-3.6
	c0.4-0.3,1-0.2,1.3,0.2c0.3,0.4,0.2,1-0.2,1.5L45.3,40.6z"/>
<circle fill="none" stroke="#4FA600" stroke-miterlimit="10" cx="41.8" cy="27.4" r="26.7"/>
</svg>
