<?xml version="1.0" encoding="utf-8"?>
<!-- Generator: Adobe Illustrator 18.1.0, SVG Export Plug-In . SVG Version: 6.00 Build 0)  -->
<svg version="1.1" id="Layer_3" xmlns="http://www.w3.org/2000/svg" xmlns:xlink="http://www.w3.org/1999/xlink" x="0px" y="0px"
	 viewBox="0 0 80 80" enable-background="new 0 0 80 80" xml:space="preserve">
<polygon fill="none" stroke="#4FA600" stroke-miterlimit="10" points="59.8,62.6 79,48.3 63.2,22.9 51.2,36.8 40.4,25 40.4,25.2 
	40.1,24.6 39.7,25.2 39.7,25 29,36.8 17,22.9 1,48.3 20.3,62.6 20.1,62.4 40.1,49.3 60.1,62.4 "/>
<path fill="#4FA600" d="M40.1,15.5c-3.1,0-5.7,2.4-6,5.5c-0.2,2.2,1.1,3.8,2,5.7c1.5,3.1,2.6,6.6,3.9,9.8c1.3-3.3,2.4-6.7,3.9-9.8
	c0.8-1.7,2.1-3.2,2.1-5.2C46.1,18.2,43.3,15.5,40.1,15.5z M40.1,23.3c-2.3,0-2.3-3.6,0-3.6C42.3,19.7,42.4,23.3,40.1,23.3z"/>
<line fill="none" stroke="#4FA600" stroke-miterlimit="10" x1="29" y1="36.8" x2="20.1" y2="62.4"/>
<line fill="none" stroke="#4FA600" stroke-miterlimit="10" x1="51.2" y1="36.7" x2="60.2" y2="62.3"/>
<line fill="none" stroke="#4FA600" stroke-miterlimit="10" x1="40.1" y1="49.3" x2="40.1" y2="24.6"/>
</svg>
