<?xml version="1.0" encoding="utf-8"?>
<!-- Generator: Adobe Illustrator 18.1.0, SVG Export Plug-In . SVG Version: 6.00 Build 0)  -->
<svg version="1.1" id="Layer_3" xmlns="http://www.w3.org/2000/svg" xmlns:xlink="http://www.w3.org/1999/xlink" x="0px" y="0px"
	 viewBox="0 0 80 80" enable-background="new 0 0 80 80" xml:space="preserve">
<g>
	<g>
		<path fill="#4FA600" d="M30.4,51.7h5.4c0,0,0-7.3,0-13.1h3.6l0.5-4.6h-4.1v-2.7c0-1,0.7-1.2,1.2-1.2s2.9,0,2.9,0v-4.5h-4
			c-4.5,0-5.4,3.4-5.4,5.4v3H28v4.6h2.5C30.4,44.6,30.4,51.7,30.4,51.7z"/>
	</g>
</g>
<g>
	<g>
		<path fill="#4FA600" d="M74,6.3c-1.1,0.6-2.2,1.1-3.4,1.3c-1-1.1-2.4-1.7-3.9-1.7c-2.9,0-5.3,2.4-5.3,5.3c0,0.4,0,0.8,0.1,1.2
			c-4.5-0.2-8.3-2.3-11-5.6c-0.4,1-0.7,1.8-0.7,2.8c0,1.8,1,3.5,2.4,4.5c-0.8,0-1.7-0.2-2.4-0.7c0,0,0,0,0,0.1
			c0,2.5,1.8,4.7,4.4,5.2c-0.5,0.1-1,0.2-1.5,0.2c-0.4,0-0.7,0-1-0.1c0.7,2.2,2.7,3.6,5,3.8c-1.8,1.5-4.1,2.3-6.7,2.3
			c-0.5,0-0.8,0-1.3-0.1c2.4,1.6,5.2,2.4,8.2,2.4c9.9,0,15.2-8.2,15.2-15.2c0-0.2,0-0.5,0-0.7c1.1-0.7,1.9-1.7,2.7-2.8
			c-1,0.5-1.9,0.7-3,0.8C72.8,8.6,73.7,7.5,74,6.3z"/>
	</g>
</g>
<g>
	<g>
		<path fill="#4FA600" d="M20.3,65h1.1c0.2,0,0.6-0.2,0.6-0.6v-4h4c0.2,0,0.6-0.2,0.6-0.6v-1c0-0.2-0.2-0.6-0.6-0.6h-4v-4
			c0-0.2-0.2-0.6-0.6-0.6h-1.1c-0.2,0-0.6,0.2-0.6,0.6v4h-4c-0.2,0-0.6,0.2-0.6,0.6v1.1c0,0.2,0.2,0.6,0.6,0.6h4v4
			C19.9,64.8,20.1,65,20.3,65z"/>
		<path fill="#4FA600" d="M4.9,71.8C5.9,72,7,72.2,8,72.2s1.9-0.1,2.8-0.4c2.8-0.8,4.5-2.8,4.5-5.2c0-2.3-0.7-3.6-2.7-5
			c-0.7-0.5-1.5-1.3-1.5-1.6c0-0.5,0-0.7,1.1-1.6c1.5-1.1,2.2-2.5,2.2-4c0-1.3-0.4-2.5-1.1-3.5h0.6c0.1,0,0.2,0,0.4-0.1l1.6-1.1
			c0.2-0.1,0.2-0.4,0.2-0.6s-0.2-0.4-0.5-0.4H8.5c-0.7,0-1.6,0.1-2.3,0.4c-2.5,0.8-4.2,3-4.2,5.2c0,3.1,2.4,5.4,5.7,5.6
			c-0.1,0.2-0.1,0.5-0.1,0.7c0,0.5,0.1,1,0.4,1.3c0,0,0,0-0.1,0c-3.1,0-5.9,1.6-6.9,3.8c-0.2,0.6-0.4,1.2-0.4,1.8s0,1.1,0.4,1.6
			C1.5,70.4,2.9,71.3,4.9,71.8z M5.5,54.2c-0.1-1.1,0.1-2.2,0.6-2.8c0.4-0.4,0.8-0.6,1.5-0.6h0.1c1.6,0,3,1.7,3.3,3.8
			c0.1,1.2-0.1,2.2-0.7,2.9c-0.4,0.4-0.8,0.6-1.5,0.6l0,0l0,0C7.2,58.1,5.7,56.3,5.5,54.2z M8.4,63.8L8.4,63.8
			c0.6,0,1.1,0.1,1.6,0.2c0.1,0.1,0.4,0.2,0.5,0.4c1.1,0.7,1.8,1.2,2.1,2.1c0,0.2,0.1,0.4,0.1,0.6c0,2.1-1.6,3-4.5,3
			c-2.3,0-4-1.3-4-3.1C4,65.2,6.1,63.8,8.4,63.8z"/>
	</g>
</g>
<path fill="none" stroke="#4FA600" stroke-miterlimit="10" d="M53,55.6h26.3v16.1H53V55.6z"/>
<polygon fill="none" stroke="#4FA600" stroke-miterlimit="10" points="66.2,65.5 63.9,63.6 54,71.7 78.4,71.7 68.4,63.6 "/>
<path fill="none" stroke="#4FA600" stroke-miterlimit="10" d="M54,55.6h24.4l-12.2,9.9L54,55.6z"/>
</svg>
