<?xml version="1.0" encoding="utf-8"?>
<!-- Generator: Adobe Illustrator 18.1.0, SVG Export Plug-In . SVG Version: 6.00 Build 0)  -->
<svg version="1.1" id="Layer_2" xmlns="http://www.w3.org/2000/svg" xmlns:xlink="http://www.w3.org/1999/xlink" x="0px" y="0px"
	 viewBox="0 0 80 80" enable-background="new 0 0 80 80" xml:space="preserve">
<path fill="#4FA600" d="M10,14.6h58.3v1H10V14.6z"/>
<path fill="#4FA600" d="M10,34.9h58.3v1H10V34.9z"/>
<path fill="#4FA600" d="M10,54.4h58.3v1H10V54.4z"/>
<path fill="none" stroke="#4FA600" stroke-miterlimit="10" d="M30.6,19.4H52c0.8,0,1.5,0.7,1.5,1.5s-0.7,1.5-1.5,1.5H30.6
	c-0.8,0-1.5-0.7-1.5-1.5C29.1,20.1,29.8,19.4,30.6,19.4z"/>
<path fill="none" stroke="#4FA600" stroke-miterlimit="10" d="M30.6,24.3h36c0.8,0,1.5,0.7,1.5,1.5s-0.7,1.5-1.5,1.5h-36
	c-0.8,0-1.5-0.7-1.5-1.5C29.1,24.9,29.8,24.3,30.6,24.3z"/>
<path fill="none" stroke="#4FA600" stroke-miterlimit="10" d="M30.6,29.1h36c0.8,0,1.5,0.7,1.5,1.5s-0.7,1.5-1.5,1.5h-36
	c-0.8,0-1.5-0.7-1.5-1.5C29.1,29.8,29.8,29.1,30.6,29.1z"/>
<path fill="none" stroke="#4FA600" stroke-miterlimit="10" d="M13.1,72.8h23.3c0.8,0,1.5,0.7,1.5,1.5s-0.7,1.5-1.5,1.5H13.1
	c-0.8,0-1.5-0.7-1.5-1.5C11.6,73.4,12.3,72.8,13.1,72.8z"/>
<path fill="none" stroke="#4FA600" stroke-miterlimit="10" d="M43.2,72.8h23.3c0.8,0,1.5,0.7,1.5,1.5s-0.7,1.5-1.5,1.5H43.2
	c-0.8,0-1.5-0.7-1.5-1.5C41.8,73.4,42.4,72.8,43.2,72.8z"/>
<path fill="none" stroke="#4FA600" stroke-miterlimit="10" d="M10.6,18.5h14.6v14.6H10.6V18.5z"/>
<path fill="none" stroke="#4FA600" stroke-miterlimit="10" d="M30.6,38.8H52c0.8,0,1.5,0.7,1.5,1.5s-0.7,1.5-1.5,1.5H30.6
	c-0.8,0-1.5-0.7-1.5-1.5S29.8,38.8,30.6,38.8z"/>
<path fill="none" stroke="#4FA600" stroke-miterlimit="10" d="M30.6,43.7h36c0.8,0,1.5,0.7,1.5,1.5s-0.7,1.5-1.5,1.5h-36
	c-0.8,0-1.5-0.7-1.5-1.5C29.1,44.3,29.8,43.7,30.6,43.7z"/>
<path fill="none" stroke="#4FA600" stroke-miterlimit="10" d="M30.6,48.5h36c0.8,0,1.5,0.7,1.5,1.5s-0.7,1.5-1.5,1.5h-36
	c-0.8,0-1.5-0.7-1.5-1.5C29.1,49.2,29.8,48.5,30.6,48.5z"/>
<path fill="none" stroke="#4FA600" stroke-miterlimit="10" d="M10.6,37.9h14.6v14.6H10.6V37.9z"/>
<path fill="none" stroke="#4FA600" stroke-miterlimit="10" d="M30.6,38.8H52c0.8,0,1.5,0.7,1.5,1.5s-0.7,1.5-1.5,1.5H30.6
	c-0.8,0-1.5-0.7-1.5-1.5S29.8,38.8,30.6,38.8z"/>
<path fill="none" stroke="#4FA600" stroke-miterlimit="10" d="M30.6,43.7h36c0.8,0,1.5,0.7,1.5,1.5s-0.7,1.5-1.5,1.5h-36
	c-0.8,0-1.5-0.7-1.5-1.5C29.1,44.3,29.8,43.7,30.6,43.7z"/>
<path fill="none" stroke="#4FA600" stroke-miterlimit="10" d="M30.6,48.5h36c0.8,0,1.5,0.7,1.5,1.5s-0.7,1.5-1.5,1.5h-36
	c-0.8,0-1.5-0.7-1.5-1.5C29.1,49.2,29.8,48.5,30.6,48.5z"/>
<path fill="none" stroke="#4FA600" stroke-miterlimit="10" d="M10.6,37.9h14.6v14.6H10.6V37.9z"/>
<path fill="none" stroke="#4FA600" stroke-miterlimit="10" d="M11.6,58.2h25.9v12.6H11.6V58.2z"/>
<path fill="none" stroke="#4FA600" stroke-miterlimit="10" d="M41.8,58.2h26v12.6h-26V58.2z"/>
<path fill="#4FA600" d="M0.9,0.6v4.9h77.8V0.6H0.9z M65.7,4.4c-0.8,0-1.5-0.7-1.5-1.5s0.7-1.5,1.5-1.5s1.5,0.7,1.5,1.5
	C67,3.8,66.4,4.4,65.7,4.4z M70.4,4.4c-0.8,0-1.5-0.7-1.5-1.5s0.7-1.5,1.5-1.5s1.5,0.7,1.5,1.5C71.9,3.8,71.2,4.4,70.4,4.4z
	 M75.3,4.4c-0.8,0-1.5-0.6-1.5-1.4s0.7-1.5,1.5-1.5s1.5,0.7,1.5,1.5C76.8,3.8,76.2,4.4,75.3,4.4z"/>
<path fill="none" stroke="#4FA600" stroke-miterlimit="10" d="M0.9,1h77.8v78.1H0.9V1z"/>
</svg>
