<?xml version="1.0" encoding="utf-8"?>
<!-- Generator: Adobe Illustrator 18.1.0, SVG Export Plug-In . SVG Version: 6.00 Build 0)  -->
<svg version="1.1" id="Layer_2" xmlns="http://www.w3.org/2000/svg" xmlns:xlink="http://www.w3.org/1999/xlink" x="0px" y="0px"
	 viewBox="0 0 80 80" enable-background="new 0 0 80 80" xml:space="preserve">
<g>
	<path fill="#4FA600" d="M14.3,34.2H14c-0.5,0-0.8,0.5-0.8,1.2v3.1c0,0.6,0.4,1.2,0.8,1.2h0.3c0.5,0,0.8-0.5,0.8-1.2v-3.1
		C15.2,34.8,14.8,34.2,14.3,34.2z"/>
	<path fill="#4FA600" d="M14.3,26.6H14c-0.5,0-0.8,0.4-0.8,1v2.7c0,0.5,0.4,1,0.8,1h0.3c0.5,0,0.8-0.4,0.8-1v-2.7
		C15.2,27.1,14.8,26.6,14.3,26.6z"/>
	<path fill="#4FA600" d="M14.3,16.5H14c-0.5,0-0.8,0.6-0.8,1.3v3.4c0,0.7,0.4,1.3,0.8,1.3h0.3c0.5,0,0.8-0.6,0.8-1.3v-3.4
		C15.2,17.1,14.8,16.5,14.3,16.5z"/>
	<path fill="#4FA600" d="M52.6,0.5h-4.5c-0.9,0-1.7,0.4-1.7,0.8v0.3c0,0.5,0.8,0.8,1.7,0.8h4.5c0.9,0,1.7-0.4,1.7-0.8V1.3
		C54.2,0.9,53.5,0.5,52.6,0.5z"/>
</g>
<path fill="none" stroke="#4FA600" stroke-miterlimit="10" d="M64.3,79.1V10.4c0-4.7-3.8-8.5-8.6-8.5H23.2c-4.7,0-8.6,3.8-8.6,8.5
	v68.7C14.6,79.1,64.3,79.1,64.3,79.1z"/>
<g>
	<path fill="none" stroke="#4FA600" stroke-miterlimit="10" d="M23.4,59h19.4c0.7,0,1.3-0.6,1.3-1.3s-0.6-1.3-1.3-1.3H23.4
		c-0.7,0-1.3,0.6-1.3,1.3C22.1,58.4,22.7,59,23.4,59z"/>
	<path fill="none" stroke="#4FA600" stroke-miterlimit="10" d="M23.4,63.3H56c0.7,0,1.3-0.6,1.3-1.3s-0.6-1.3-1.3-1.3H23.4
		c-0.7,0-1.3,0.6-1.3,1.3S22.7,63.3,23.4,63.3z"/>
	<path fill="none" stroke="#4FA600" stroke-miterlimit="10" d="M56,65.1H23.4c-0.7,0-1.3,0.6-1.3,1.3c0,0.7,0.6,1.3,1.3,1.3H56
		c0.7,0,1.3-0.6,1.3-1.3S56.7,65.1,56,65.1z"/>
	<path fill="none" stroke="#4FA600" stroke-miterlimit="10" d="M22.1,29.4h35.2v23.5H22.1V29.4z"/>
</g>
<path fill="#4FA600" stroke="#4FA600" stroke-miterlimit="10" d="M18,25.9v-7.4c0-0.7,0.6-1.3,1.3-1.3h40.3c0.7,0,1.3,0.6,1.3,1.3
	v7.4H18z"/>
<path fill="none" stroke="#4FA600" stroke-miterlimit="10" d="M18,79.1V18.5c0-0.7,0.6-1.3,1.3-1.3h40.3c0.7,0,1.3,0.6,1.3,1.3v60.6
	H18z"/>
<path fill="none" stroke="#4FA600" stroke-miterlimit="10" d="M35.6,10.8h6.9c0.5,0,0.9,0.4,0.9,0.8s-0.4,0.8-0.9,0.8h-6.9
	c-0.5,0-0.9-0.4-0.9-0.8S35.1,10.8,35.6,10.8z"/>
<path fill="none" stroke="#4FA600" stroke-miterlimit="10" d="M39,6.6c0.7,0,1.3,0.6,1.3,1.3c0,0.7-0.6,1.3-1.3,1.3
	s-1.3-0.6-1.3-1.3C37.7,7.1,38.3,6.6,39,6.6z"/>
</svg>
