<?xml version="1.0" encoding="utf-8"?>
<!-- Generator: Adobe Illustrator 18.1.0, SVG Export Plug-In . SVG Version: 6.00 Build 0)  -->
<svg version="1.1" id="Layer_3" xmlns="http://www.w3.org/2000/svg" xmlns:xlink="http://www.w3.org/1999/xlink" x="0px" y="0px"
	 viewBox="0 0 80 80" enable-background="new 0 0 80 80" xml:space="preserve">
<path fill="#4FA600" stroke="#4FA600" stroke-linecap="round" stroke-linejoin="round" stroke-miterlimit="10" d="M7.5,32.4l2.3,3.8
	l4.6,0.8l-3.2,3.2l0.6,4.3l-4.2-1.8l-4.2,1.8L4,40.2L0.8,37l4.6-0.8L7.5,32.4"/>
<path fill="#4FA600" stroke="#4FA600" stroke-linecap="round" stroke-linejoin="round" stroke-miterlimit="10" d="M23.5,32.4
	l2.3,3.8l4.6,0.8l-3.2,3.2l0.6,4.3l-4.2-1.8l-4.2,1.8l0.6-4.3L16.8,37l4.6-0.8L23.5,32.4"/>
<path fill="#4FA600" stroke="#4FA600" stroke-linecap="round" stroke-linejoin="round" stroke-miterlimit="10" d="M39.5,32.4
	l2.3,3.8l4.6,0.8l-3.2,3.2l0.6,4.3l-4.2-1.8l-4.2,1.8l0.6-4.3L32.8,37l4.6-0.8L39.5,32.4"/>
<path fill="none" stroke="#4FA600" stroke-linecap="round" stroke-linejoin="round" stroke-miterlimit="10" d="M71.5,32.4l2.3,3.8
	l4.6,0.8l-3.2,3.2l0.6,4.3l-4.2-1.8l-4.2,1.8l0.6-4.3L64.8,37l4.6-0.8L71.5,32.4"/>
<path fill="none" stroke="#4FA600" stroke-linecap="round" stroke-linejoin="round" stroke-miterlimit="10" d="M55.5,32.4l2.3,3.8
	l4.6,0.8l-3.2,3.2l0.6,4.3l-4.2-1.8l-4.3,1.8l0.6-4.3L48.7,37l4.6-0.8L55.5,32.4"/>
</svg>
