<?xml version="1.0" encoding="utf-8"?>
<!-- Generator: Adobe Illustrator 18.1.0, SVG Export Plug-In . SVG Version: 6.00 Build 0)  -->
<svg version="1.1" id="Layer_2" xmlns="http://www.w3.org/2000/svg" xmlns:xlink="http://www.w3.org/1999/xlink" x="0px" y="0px"
	 viewBox="0 0 80 80" enable-background="new 0 0 80 80" xml:space="preserve">
<g id="Layer_4_copy_2">
	<path fill="none" stroke="#4FA600" stroke-miterlimit="10" d="M65.5,18.3v7h2v0.5h-2v4.5h1.2c0.4,0,0.7,0.3,0.7,0.7
		c0,0.4-0.3,0.7-0.7,0.7h-1.2v1h1.2c0.4,0,0.7,0.3,0.7,0.7c0,0.4-0.3,0.7-0.7,0.7h-1.2v1.5h2v0.5h-2v4h1.2c0.4,0,0.7,0.3,0.7,0.7
		c0,0.4-0.3,0.7-0.7,0.7h-1.2v1h1.2c0.4,0,0.7,0.3,0.7,0.7c0,0.4-0.3,0.7-0.7,0.7h-1.2v1.6h2V46h-2v1.5h1.8v6.4h-1.8V55h1.1
		c0.4,0,0.7,0.3,0.7,0.7s-0.3,0.7-0.7,0.7h-1.1v1.7h7.4V18.3H65.5z"/>
	<path fill="#4FA600" d="M65.5,18.1v2.5h7.4v-2.5C72.9,18.1,65.5,18.1,65.5,18.1z M66.2,20c-0.4,0-0.7-0.3-0.7-0.7s0.3-0.7,0.7-0.7
		s0.7,0.3,0.7,0.7C66.9,19.7,66.6,20,66.2,20z M68.7,20c-0.4,0-0.7-0.3-0.7-0.7s0.3-0.7,0.7-0.7c0.4,0,0.7,0.3,0.7,0.7
		C69.4,19.7,69.1,20,68.7,20z M71.2,20c-0.4,0-0.7-0.3-0.7-0.7s0.3-0.7,0.7-0.7c0.4,0,0.7,0.3,0.7,0.7C71.9,19.7,71.6,20,71.2,20z"
		/>
</g>
<g id="Layer_4_copy">
	<path fill="none" stroke="#4FA600" stroke-miterlimit="10" d="M57,16v7.7h2.3v0.5H57v5h1.4c0.5,0,0.8,0.4,0.8,0.8
		c0,0.5-0.4,0.8-0.8,0.8H57v1.1h1.4c0.5,0,0.8,0.4,0.8,0.8s-0.4,0.8-0.8,0.8H57v1.7h2.3v0.5H57v4.4h1.4c0.5,0,0.8,0.4,0.8,0.8
		s-0.4,0.8-0.8,0.8H57v1.1h1.4c0.5,0,0.8,0.4,0.8,0.8c0,0.5-0.4,0.8-0.8,0.8H57v1.8h2.3v0.5H57v1.6h2v7.1h-2v1.2h1.3
		c0.5,0,0.8,0.4,0.8,0.8s-0.4,0.8-0.8,0.8H57v1.9h8.2V16H57z"/>
	<path fill="#4FA600" d="M57,15.8v2.8h8.2v-2.8C65.2,15.8,57,15.8,57,15.8z M57.8,18c-0.5,0-0.8-0.4-0.8-0.8s0.4-0.8,0.8-0.8
		c0.5,0,0.8,0.4,0.8,0.8C58.5,17.6,58.3,18,57.8,18z M60.5,18c-0.5,0-0.8-0.4-0.8-0.8s0.4-0.8,0.8-0.8c0.5,0,0.8,0.4,0.8,0.8
		S61,18,60.5,18z M63.3,18c-0.5,0-0.8-0.4-0.8-0.8s0.4-0.8,0.8-0.8s0.8,0.4,0.8,0.8C64.1,17.6,63.8,18,63.3,18z"/>
</g>
<g id="Layer_2_copy_4_1_">
	<path fill="none" stroke="#4FA600" stroke-miterlimit="10" d="M8,13.6h49v49.2H8V13.6z"/>
	<path fill="#4FA600" d="M13.7,22.2h36.7v0.6H13.7V22.2z"/>
	<path fill="#4FA600" d="M13.7,35h36.7v0.6H13.7V35z"/>
	<path fill="#4FA600" d="M13.7,47.3h36.7v0.6H13.7V47.3z"/>
	<path fill="none" stroke="#4FA600" stroke-miterlimit="10" d="M26.7,25.2h13.5c0.5,0,0.9,0.4,0.9,0.9S40.7,27,40.2,27H26.7
		c-0.5,0-0.9-0.4-0.9-0.9C25.8,25.7,26.2,25.2,26.7,25.2z"/>
	<path fill="none" stroke="#4FA600" stroke-miterlimit="10" d="M26.7,28.3h22.7c0.5,0,0.9,0.4,0.9,0.9s-0.4,0.9-0.9,0.9H26.7
		c-0.5,0-0.9-0.4-0.9-0.9C25.8,28.7,26.2,28.3,26.7,28.3z"/>
	<path fill="none" stroke="#4FA600" stroke-miterlimit="10" d="M26.7,31.3h22.7c0.5,0,0.9,0.4,0.9,0.9s-0.4,0.9-0.9,0.9H26.7
		c-0.5,0-0.9-0.4-0.9-0.9C25.8,31.8,26.2,31.3,26.7,31.3z"/>
	<path fill="none" stroke="#4FA600" stroke-miterlimit="10" d="M15.7,58.9h14.7c0.5,0,0.9,0.4,0.9,0.9s-0.4,0.9-0.9,0.9H15.7
		c-0.5,0-0.9-0.4-0.9-0.9C14.7,59.2,15.2,58.9,15.7,58.9z"/>
	<path fill="none" stroke="#4FA600" stroke-miterlimit="10" d="M34.6,58.9h14.7c0.5,0,0.9,0.4,0.9,0.9s-0.4,0.9-0.9,0.9H34.6
		c-0.5,0-0.9-0.4-0.9-0.9C33.7,59.2,34.1,58.9,34.6,58.9z"/>
	<path fill="none" stroke="#4FA600" stroke-miterlimit="10" d="M14.1,24.6h9.2v9.2h-9.2V24.6z"/>
	<path fill="none" stroke="#4FA600" stroke-miterlimit="10" d="M26.7,37.4h13.5c0.5,0,0.9,0.4,0.9,0.9s-0.4,0.9-0.9,0.9H26.7
		c-0.5,0-0.9-0.4-0.9-0.9C25.8,37.9,26.2,37.4,26.7,37.4z"/>
	<path fill="none" stroke="#4FA600" stroke-miterlimit="10" d="M26.7,40.5h22.7c0.5,0,0.9,0.4,0.9,0.9s-0.4,0.9-0.9,0.9H26.7
		c-0.5,0-0.9-0.4-0.9-0.9C25.8,40.9,26.2,40.5,26.7,40.5z"/>
	<path fill="none" stroke="#4FA600" stroke-miterlimit="10" d="M26.7,43.5h22.7c0.5,0,0.9,0.4,0.9,0.9s-0.4,0.9-0.9,0.9H26.7
		c-0.5,0-0.9-0.4-0.9-0.9C25.8,44,26.2,43.5,26.7,43.5z"/>
	<path fill="none" stroke="#4FA600" stroke-miterlimit="10" d="M14.1,36.9h9.2v9.2h-9.2V36.9z"/>
	<path fill="none" stroke="#4FA600" stroke-miterlimit="10" d="M26.7,37.4h13.5c0.5,0,0.9,0.4,0.9,0.9s-0.4,0.9-0.9,0.9H26.7
		c-0.5,0-0.9-0.4-0.9-0.9C25.8,37.9,26.2,37.4,26.7,37.4z"/>
	<path fill="none" stroke="#4FA600" stroke-miterlimit="10" d="M26.7,40.5h22.7c0.5,0,0.9,0.4,0.9,0.9s-0.4,0.9-0.9,0.9H26.7
		c-0.5,0-0.9-0.4-0.9-0.9C25.8,40.9,26.2,40.5,26.7,40.5z"/>
	<path fill="none" stroke="#4FA600" stroke-miterlimit="10" d="M26.7,43.5h22.7c0.5,0,0.9,0.4,0.9,0.9s-0.4,0.9-0.9,0.9H26.7
		c-0.5,0-0.9-0.4-0.9-0.9C25.8,44,26.2,43.5,26.7,43.5z"/>
	<path fill="none" stroke="#4FA600" stroke-miterlimit="10" d="M14.1,36.9h9.2v9.2h-9.2V36.9z"/>
	<path fill="none" stroke="#4FA600" stroke-miterlimit="10" d="M14.7,49.7H31v7.9H14.7V49.7z"/>
	<path fill="none" stroke="#4FA600" stroke-miterlimit="10" d="M33.7,49.7h16.4v7.9H33.7V49.7z"/>
	<path fill="#4FA600" d="M8,13.4v3.1h49v-3.1C57,13.4,8,13.4,8,13.4z M48.8,15.8c-0.5,0-0.9-0.4-0.9-0.9s0.4-0.9,0.9-0.9
		s0.9,0.4,0.9,0.9C49.6,15.4,49.3,15.8,48.8,15.8z M51.8,15.8c-0.5,0-0.9-0.4-0.9-0.9s0.4-0.9,0.9-0.9s0.9,0.4,0.9,0.9
		C52.7,15.4,52.3,15.8,51.8,15.8z M54.9,15.8c-0.5,0-0.9-0.4-0.9-0.9s0.4-0.9,0.9-0.9s0.9,0.4,0.9,0.9
		C55.8,15.4,55.4,15.8,54.9,15.8z"/>
</g>
</svg>
