<?xml version="1.0" encoding="utf-8"?>
<!-- Generator: Adobe Illustrator 18.1.0, SVG Export Plug-In . SVG Version: 6.00 Build 0)  -->
<svg version="1.1" id="Layer_2" xmlns="http://www.w3.org/2000/svg" xmlns:xlink="http://www.w3.org/1999/xlink" x="0px" y="0px"
	 viewBox="0 0 80 80" enable-background="new 0 0 80 80" xml:space="preserve">
<g id="Layer_4">
	<path fill="none" stroke="#4FA600" stroke-miterlimit="10" d="M72.6,22.2v5.6h1.6v0.4h-1.6v3.6h1c0.3,0,0.6,0.3,0.6,0.6
		c0,0.3-0.3,0.6-0.6,0.6h-1v0.8h1c0.3,0,0.6,0.3,0.6,0.6c0,0.3-0.3,0.6-0.6,0.6h-1v1.2h1.6v0.4h-1.6v3.2h1c0.3,0,0.6,0.3,0.6,0.6
		c0,0.3-0.3,0.6-0.6,0.6h-1v0.8h1c0.3,0,0.6,0.3,0.6,0.6c0,0.3-0.3,0.6-0.6,0.6h-1v1.3h1.6v0.4h-1.6v1.2H74v5.1h-1.4v0.8h0.9
		c0.3,0,0.6,0.3,0.6,0.6c0,0.3-0.3,0.6-0.6,0.6h-0.9v1.4h5.9V22.2H72.6z"/>
	<path fill="#4FA600" d="M72.6,22.1v2h5.9v-2C78.5,22.1,72.6,22.1,72.6,22.1z M73.2,23.6c-0.3,0-0.6-0.3-0.6-0.6s0.3-0.6,0.6-0.6
		c0.3,0,0.6,0.3,0.6,0.6C73.7,23.4,73.5,23.6,73.2,23.6z M75.1,23.6c-0.3,0-0.6-0.3-0.6-0.6s0.3-0.6,0.6-0.6s0.6,0.3,0.6,0.6
		C75.7,23.4,75.5,23.6,75.1,23.6z M77.2,23.6c-0.3,0-0.6-0.3-0.6-0.6s0.3-0.6,0.6-0.6c0.3,0,0.6,0.3,0.6,0.6
		C77.7,23.4,77.5,23.6,77.2,23.6z"/>
</g>
<g id="Layer_4_copy_3">
	<path fill="none" stroke="#4FA600" stroke-miterlimit="10" d="M65.9,20.3v6.2h1.8V27h-1.8v4H67c0.4,0,0.7,0.3,0.7,0.7
		c0,0.4-0.3,0.7-0.7,0.7h-1.1v0.9H67c0.4,0,0.7,0.3,0.7,0.7s-0.3,0.7-0.7,0.7h-1.1v1.4h1.8v0.4h-1.8v3.5H67c0.4,0,0.7,0.3,0.7,0.7
		s-0.3,0.7-0.7,0.7h-1.1V42H67c0.4,0,0.7,0.3,0.7,0.7c0,0.4-0.3,0.7-0.7,0.7h-1.1v1.4h1.8v0.4h-1.8v1.3h1.6v5.7h-1.6v0.9h1
		c0.4,0,0.7,0.3,0.7,0.7s-0.3,0.7-0.7,0.7h-1v1.5h6.6V20.3H65.9z"/>
	<path fill="#4FA600" d="M65.9,20.2v2.2h6.6v-2.2C72.5,20.2,65.9,20.2,65.9,20.2z M66.6,21.9c-0.4,0-0.7-0.3-0.7-0.7
		c0-0.4,0.3-0.7,0.7-0.7s0.7,0.3,0.7,0.7C67.2,21.6,66.9,21.9,66.6,21.9z M68.7,21.9c-0.4,0-0.7-0.3-0.7-0.7c0-0.4,0.3-0.7,0.7-0.7
		s0.7,0.3,0.7,0.7S69.1,21.9,68.7,21.9z M71,21.9c-0.4,0-0.7-0.3-0.7-0.7c0-0.4,0.3-0.7,0.7-0.7s0.7,0.3,0.7,0.7S71.4,21.9,71,21.9z
		"/>
</g>
<g id="Layer_4_copy_2">
	<path fill="none" stroke="#4FA600" stroke-miterlimit="10" d="M58.5,18.3v7h2v0.5h-2v4.5h1.2c0.4,0,0.7,0.3,0.7,0.7
		c0,0.4-0.3,0.7-0.7,0.7h-1.2v1h1.2c0.4,0,0.7,0.3,0.7,0.7c0,0.4-0.3,0.7-0.7,0.7h-1.2v1.5h2v0.5h-2v4h1.2c0.4,0,0.7,0.3,0.7,0.7
		c0,0.4-0.3,0.7-0.7,0.7h-1.2v1h1.2c0.4,0,0.7,0.3,0.7,0.7c0,0.4-0.3,0.7-0.7,0.7h-1.2v1.6h2V46h-2v1.5h1.8v6.4h-1.8V55h1.1
		c0.4,0,0.7,0.3,0.7,0.7s-0.3,0.7-0.7,0.7h-1.1v1.7h7.4V18.3H58.5z"/>
	<path fill="#4FA600" d="M58.5,18.1v2.5h7.4v-2.5C65.9,18.1,58.5,18.1,58.5,18.1z M59.2,20c-0.4,0-0.7-0.3-0.7-0.7s0.3-0.7,0.7-0.7
		c0.4,0,0.7,0.3,0.7,0.7C59.9,19.7,59.6,20,59.2,20z M61.7,20c-0.4,0-0.7-0.3-0.7-0.7s0.3-0.7,0.7-0.7c0.4,0,0.7,0.3,0.7,0.7
		C62.4,19.7,62.1,20,61.7,20z M64.2,20c-0.4,0-0.7-0.3-0.7-0.7s0.3-0.7,0.7-0.7c0.4,0,0.7,0.3,0.7,0.7C64.9,19.7,64.6,20,64.2,20z"
		/>
</g>
<g id="Layer_4_copy">
	<path fill="none" stroke="#4FA600" stroke-miterlimit="10" d="M50,16v7.7h2.3v0.5H50v5h1.4c0.5,0,0.8,0.4,0.8,0.8
		c0,0.5-0.4,0.8-0.8,0.8H50v1.1h1.4c0.5,0,0.8,0.4,0.8,0.8s-0.4,0.8-0.8,0.8H50v1.7h2.3v0.5H50v4.4h1.4c0.5,0,0.8,0.4,0.8,0.8
		s-0.4,0.8-0.8,0.8H50v1.1h1.4c0.5,0,0.8,0.4,0.8,0.8c0,0.5-0.4,0.8-0.8,0.8H50v1.8h2.3v0.5H50v1.6h2v7.1h-2v1.2h1.3
		c0.5,0,0.8,0.4,0.8,0.8s-0.4,0.8-0.8,0.8H50v1.9h8.2V16H50z"/>
	<path fill="#4FA600" d="M50,15.8v2.8h8.2v-2.8C58.2,15.8,50,15.8,50,15.8z M50.8,18c-0.5,0-0.8-0.4-0.8-0.8s0.4-0.8,0.8-0.8
		c0.5,0,0.8,0.4,0.8,0.8C51.5,17.6,51.3,18,50.8,18z M53.5,18c-0.5,0-0.8-0.4-0.8-0.8s0.4-0.8,0.8-0.8c0.5,0,0.8,0.4,0.8,0.8
		S54,18,53.5,18z M56.3,18c-0.5,0-0.8-0.4-0.8-0.8s0.4-0.8,0.8-0.8s0.8,0.4,0.8,0.8C57.1,17.6,56.8,18,56.3,18z"/>
</g>
<g id="Layer_2_copy_4_1_">
	<path fill="none" stroke="#4FA600" stroke-miterlimit="10" d="M1,13.6h49v49.2H1V13.6z"/>
	<path fill="#4FA600" d="M6.7,22.2h36.7v0.6H6.7V22.2z"/>
	<path fill="#4FA600" d="M6.7,35h36.7v0.6H6.7V35z"/>
	<path fill="#4FA600" d="M6.7,47.3h36.7v0.6H6.7V47.3z"/>
	<path fill="none" stroke="#4FA600" stroke-miterlimit="10" d="M19.7,25.2h13.5c0.5,0,0.9,0.4,0.9,0.9S33.7,27,33.2,27H19.7
		c-0.5,0-0.9-0.4-0.9-0.9C18.8,25.7,19.2,25.2,19.7,25.2z"/>
	<path fill="none" stroke="#4FA600" stroke-miterlimit="10" d="M19.7,28.3h22.7c0.5,0,0.9,0.4,0.9,0.9s-0.4,0.9-0.9,0.9H19.7
		c-0.5,0-0.9-0.4-0.9-0.9C18.8,28.7,19.2,28.3,19.7,28.3z"/>
	<path fill="none" stroke="#4FA600" stroke-miterlimit="10" d="M19.7,31.3h22.7c0.5,0,0.9,0.4,0.9,0.9s-0.4,0.9-0.9,0.9H19.7
		c-0.5,0-0.9-0.4-0.9-0.9C18.8,31.8,19.2,31.3,19.7,31.3z"/>
	<path fill="none" stroke="#4FA600" stroke-miterlimit="10" d="M8.7,58.9h14.7c0.5,0,0.9,0.4,0.9,0.9s-0.4,0.9-0.9,0.9H8.7
		c-0.5,0-0.9-0.4-0.9-0.9C7.7,59.2,8.2,58.9,8.7,58.9z"/>
	<path fill="none" stroke="#4FA600" stroke-miterlimit="10" d="M27.6,58.9h14.7c0.5,0,0.9,0.4,0.9,0.9s-0.4,0.9-0.9,0.9H27.6
		c-0.5,0-0.9-0.4-0.9-0.9C26.7,59.2,27.1,58.9,27.6,58.9z"/>
	<path fill="none" stroke="#4FA600" stroke-miterlimit="10" d="M7.1,24.6h9.2v9.2H7.1V24.6z"/>
	<path fill="none" stroke="#4FA600" stroke-miterlimit="10" d="M19.7,37.4h13.5c0.5,0,0.9,0.4,0.9,0.9s-0.4,0.9-0.9,0.9H19.7
		c-0.5,0-0.9-0.4-0.9-0.9C18.8,37.9,19.2,37.4,19.7,37.4z"/>
	<path fill="none" stroke="#4FA600" stroke-miterlimit="10" d="M19.7,40.5h22.7c0.5,0,0.9,0.4,0.9,0.9s-0.4,0.9-0.9,0.9H19.7
		c-0.5,0-0.9-0.4-0.9-0.9C18.8,40.9,19.2,40.5,19.7,40.5z"/>
	<path fill="none" stroke="#4FA600" stroke-miterlimit="10" d="M19.7,43.5h22.7c0.5,0,0.9,0.4,0.9,0.9s-0.4,0.9-0.9,0.9H19.7
		c-0.5,0-0.9-0.4-0.9-0.9C18.8,44,19.2,43.5,19.7,43.5z"/>
	<path fill="none" stroke="#4FA600" stroke-miterlimit="10" d="M7.1,36.9h9.2v9.2H7.1V36.9z"/>
	<path fill="none" stroke="#4FA600" stroke-miterlimit="10" d="M19.7,37.4h13.5c0.5,0,0.9,0.4,0.9,0.9s-0.4,0.9-0.9,0.9H19.7
		c-0.5,0-0.9-0.4-0.9-0.9C18.8,37.9,19.2,37.4,19.7,37.4z"/>
	<path fill="none" stroke="#4FA600" stroke-miterlimit="10" d="M19.7,40.5h22.7c0.5,0,0.9,0.4,0.9,0.9s-0.4,0.9-0.9,0.9H19.7
		c-0.5,0-0.9-0.4-0.9-0.9C18.8,40.9,19.2,40.5,19.7,40.5z"/>
	<path fill="none" stroke="#4FA600" stroke-miterlimit="10" d="M19.7,43.5h22.7c0.5,0,0.9,0.4,0.9,0.9s-0.4,0.9-0.9,0.9H19.7
		c-0.5,0-0.9-0.4-0.9-0.9C18.8,44,19.2,43.5,19.7,43.5z"/>
	<path fill="none" stroke="#4FA600" stroke-miterlimit="10" d="M7.1,36.9h9.2v9.2H7.1V36.9z"/>
	<path fill="none" stroke="#4FA600" stroke-miterlimit="10" d="M7.7,49.7H24v7.9H7.7V49.7z"/>
	<path fill="none" stroke="#4FA600" stroke-miterlimit="10" d="M26.7,49.7h16.4v7.9H26.7V49.7z"/>
	<path fill="#4FA600" d="M1,13.4v3.1h49v-3.1C50,13.4,1,13.4,1,13.4z M41.8,15.8c-0.5,0-0.9-0.4-0.9-0.9s0.4-0.9,0.9-0.9
		s0.9,0.4,0.9,0.9C42.6,15.4,42.3,15.8,41.8,15.8z M44.8,15.8c-0.5,0-0.9-0.4-0.9-0.9s0.4-0.9,0.9-0.9s0.9,0.4,0.9,0.9
		C45.7,15.4,45.3,15.8,44.8,15.8z M47.9,15.8c-0.5,0-0.9-0.4-0.9-0.9s0.4-0.9,0.9-0.9s0.9,0.4,0.9,0.9
		C48.8,15.4,48.4,15.8,47.9,15.8z"/>
</g>
</svg>
