<?xml version="1.0" encoding="utf-8"?>
<!-- Generator: Adobe Illustrator 18.1.0, SVG Export Plug-In . SVG Version: 6.00 Build 0)  -->
<svg version="1.1" id="Layer_2" xmlns="http://www.w3.org/2000/svg" xmlns:xlink="http://www.w3.org/1999/xlink" x="0px" y="0px"
	 viewBox="0 0 80 80" enable-background="new 0 0 80 80" xml:space="preserve">
<g id="Layer_2_copy_4_1_">
	<path fill="none" stroke="#4FA600" stroke-miterlimit="10" d="M16,13.6h49v49.2H16V13.6z"/>
	<path fill="#4FA600" d="M21.7,22.2h36.7v0.6H21.7V22.2z"/>
	<path fill="#4FA600" d="M21.7,35h36.7v0.6H21.7V35z"/>
	<path fill="#4FA600" d="M21.7,47.3h36.7v0.6H21.7V47.3z"/>
	<path fill="none" stroke="#4FA600" stroke-miterlimit="10" d="M34.7,25.2h13.5c0.5,0,0.9,0.4,0.9,0.9S48.7,27,48.2,27H34.7
		c-0.5,0-0.9-0.4-0.9-0.9C33.8,25.7,34.2,25.2,34.7,25.2z"/>
	<path fill="none" stroke="#4FA600" stroke-miterlimit="10" d="M34.7,28.3h22.7c0.5,0,0.9,0.4,0.9,0.9s-0.4,0.9-0.9,0.9H34.7
		c-0.5,0-0.9-0.4-0.9-0.9C33.8,28.7,34.2,28.3,34.7,28.3z"/>
	<path fill="none" stroke="#4FA600" stroke-miterlimit="10" d="M34.7,31.3h22.7c0.5,0,0.9,0.4,0.9,0.9s-0.4,0.9-0.9,0.9H34.7
		c-0.5,0-0.9-0.4-0.9-0.9C33.8,31.8,34.2,31.3,34.7,31.3z"/>
	<path fill="none" stroke="#4FA600" stroke-miterlimit="10" d="M23.7,58.9h14.7c0.5,0,0.9,0.4,0.9,0.9s-0.4,0.9-0.9,0.9H23.7
		c-0.5,0-0.9-0.4-0.9-0.9C22.7,59.2,23.2,58.9,23.7,58.9z"/>
	<path fill="none" stroke="#4FA600" stroke-miterlimit="10" d="M42.6,58.9h14.7c0.5,0,0.9,0.4,0.9,0.9s-0.4,0.9-0.9,0.9H42.6
		c-0.5,0-0.9-0.4-0.9-0.9C41.7,59.2,42.1,58.9,42.6,58.9z"/>
	<path fill="none" stroke="#4FA600" stroke-miterlimit="10" d="M22.1,24.6h9.2v9.2h-9.2V24.6z"/>
	<path fill="none" stroke="#4FA600" stroke-miterlimit="10" d="M34.7,37.4h13.5c0.5,0,0.9,0.4,0.9,0.9s-0.4,0.9-0.9,0.9H34.7
		c-0.5,0-0.9-0.4-0.9-0.9C33.8,37.9,34.2,37.4,34.7,37.4z"/>
	<path fill="none" stroke="#4FA600" stroke-miterlimit="10" d="M34.7,40.5h22.7c0.5,0,0.9,0.4,0.9,0.9s-0.4,0.9-0.9,0.9H34.7
		c-0.5,0-0.9-0.4-0.9-0.9C33.8,40.9,34.2,40.5,34.7,40.5z"/>
	<path fill="none" stroke="#4FA600" stroke-miterlimit="10" d="M34.7,43.5h22.7c0.5,0,0.9,0.4,0.9,0.9s-0.4,0.9-0.9,0.9H34.7
		c-0.5,0-0.9-0.4-0.9-0.9C33.8,44,34.2,43.5,34.7,43.5z"/>
	<path fill="none" stroke="#4FA600" stroke-miterlimit="10" d="M22.1,36.9h9.2v9.2h-9.2V36.9z"/>
	<path fill="none" stroke="#4FA600" stroke-miterlimit="10" d="M34.7,37.4h13.5c0.5,0,0.9,0.4,0.9,0.9s-0.4,0.9-0.9,0.9H34.7
		c-0.5,0-0.9-0.4-0.9-0.9C33.8,37.9,34.2,37.4,34.7,37.4z"/>
	<path fill="none" stroke="#4FA600" stroke-miterlimit="10" d="M34.7,40.5h22.7c0.5,0,0.9,0.4,0.9,0.9s-0.4,0.9-0.9,0.9H34.7
		c-0.5,0-0.9-0.4-0.9-0.9C33.8,40.9,34.2,40.5,34.7,40.5z"/>
	<path fill="none" stroke="#4FA600" stroke-miterlimit="10" d="M34.7,43.5h22.7c0.5,0,0.9,0.4,0.9,0.9s-0.4,0.9-0.9,0.9H34.7
		c-0.5,0-0.9-0.4-0.9-0.9C33.8,44,34.2,43.5,34.7,43.5z"/>
	<path fill="none" stroke="#4FA600" stroke-miterlimit="10" d="M22.1,36.9h9.2v9.2h-9.2V36.9z"/>
	<path fill="none" stroke="#4FA600" stroke-miterlimit="10" d="M22.7,49.7H39v7.9H22.7V49.7z"/>
	<path fill="none" stroke="#4FA600" stroke-miterlimit="10" d="M41.7,49.7h16.4v7.9H41.7V49.7z"/>
	<path fill="#4FA600" d="M16,13.4v3.1h49v-3.1C65,13.4,16,13.4,16,13.4z M56.8,15.8c-0.5,0-0.9-0.4-0.9-0.9s0.4-0.9,0.9-0.9
		s0.9,0.4,0.9,0.9C57.6,15.4,57.3,15.8,56.8,15.8z M59.8,15.8c-0.5,0-0.9-0.4-0.9-0.9s0.4-0.9,0.9-0.9s0.9,0.4,0.9,0.9
		C60.7,15.4,60.3,15.8,59.8,15.8z M62.9,15.8c-0.5,0-0.9-0.4-0.9-0.9s0.4-0.9,0.9-0.9s0.9,0.4,0.9,0.9
		C63.8,15.4,63.4,15.8,62.9,15.8z"/>
</g>
</svg>
