<?xml version="1.0" encoding="utf-8"?>
<!-- Generator: Adobe Illustrator 18.1.0, SVG Export Plug-In . SVG Version: 6.00 Build 0)  -->
<svg version="1.1" id="Layer_2" xmlns="http://www.w3.org/2000/svg" xmlns:xlink="http://www.w3.org/1999/xlink" x="0px" y="0px"
	 viewBox="0 0 80 80" enable-background="new 0 0 80 80" xml:space="preserve">
<path fill="#4FA600" d="M15.7,10h12.7c1.5,0,2.7,1.2,2.7,2.7v12.7c0,1.5-1.2,2.7-2.7,2.7H15.7c-1.5,0-2.7-1.2-2.7-2.7V12.8
	C12.9,11.2,14.2,10,15.7,10z"/>
<path fill="#4FA600" d="M44.8,53.7h12.7v0.9H44.8V53.7z"/>
<path fill="#4FA600" d="M44.8,56.4h20v0.9h-20V56.4z"/>
<path fill="#4FA600" d="M44.8,58.2h20v0.9h-20V58.2z"/>
<path fill="#4FA600" d="M44.8,60.1h20V61h-20V60.1z"/>
<path fill="#4FA600" d="M44.8,61.9h15.4v0.9H44.8V61.9z"/>
<path fill="none" stroke="#4FA600" stroke-miterlimit="10" d="M21.1,55.5h9.1c1,0,1.8,0.7,1.8,1.5s-0.8,1.5-1.8,1.5h-9.1
	c-1,0-1.8-0.7-1.8-1.5S20.1,55.5,21.1,55.5z"/>
<path fill="none" stroke="#4FA600" stroke-miterlimit="10" d="M21.1,59.9h9.1c1,0,1.8,0.7,1.8,1.5s-0.8,1.5-1.8,1.5h-9.1
	c-1,0-1.8-0.7-1.8-1.5C19.3,60.5,20.1,59.9,21.1,59.9z"/>
<path fill="none" stroke="#4FA600" stroke-miterlimit="10" d="M20.2,40h10.9v10.9H20.2V40z"/>
<path fill="none" stroke="#4FA600" stroke-miterlimit="10" d="M44.8,40h20v10.9h-20V40z"/>
<path fill="#4FA600" d="M12.9,33.7h25.4v3.6H12.9V33.7z"/>
<path fill="#4FA600" d="M42,33.7h25.4v3.6H42V33.7z"/>
<path fill="none" stroke="#4FA600" stroke-miterlimit="10" d="M12.9,33.7h25.4v32.8H12.9V33.7z"/>
<path fill="none" stroke="#4FA600" stroke-miterlimit="10" d="M42,33.7h25.4v32.8H42V33.7z"/>
<path fill="none" stroke="#4FA600" stroke-miterlimit="10" d="M35.2,13.7h20c0.8,0,1.4,0.6,1.4,1.4s-0.6,1.4-1.4,1.4h-20
	c-0.8,0-1.4-0.6-1.4-1.4S34.5,13.7,35.2,13.7z"/>
<path fill="none" stroke="#4FA600" stroke-miterlimit="10" d="M35.2,18.2h33.6c0.8,0,1.4,0.6,1.4,1.4S69.7,21,68.8,21H35.2
	c-0.8,0-1.4-0.6-1.4-1.4S34.5,18.2,35.2,18.2z"/>
<path fill="none" stroke="#4FA600" stroke-miterlimit="10" d="M35.2,22.8h33.6c0.8,0,1.4,0.6,1.4,1.4s-0.6,1.4-1.4,1.4H35.2
	c-0.8,0-1.4-0.6-1.4-1.4S34.5,22.8,35.2,22.8z"/>
<path fill="none" stroke="#4FA600" stroke-miterlimit="10" d="M15.2,68.2H37c0.8,0,1.4,0.6,1.4,1.4S37.9,71,37,71H15.2
	c-0.8,0-1.4-0.6-1.4-1.4C13.8,68.9,14.5,68.2,15.2,68.2z"/>
<path fill="none" stroke="#4FA600" stroke-miterlimit="10" d="M15.2,72.8H37c0.8,0,1.4,0.6,1.4,1.4s-0.6,1.4-1.4,1.4H15.2
	c-0.8,0-1.4-0.6-1.4-1.4S14.5,72.8,15.2,72.8z"/>
<path fill="none" stroke="#4FA600" stroke-miterlimit="10" d="M43.3,68.2h21.8c0.8,0,1.4,0.6,1.4,1.4S65.9,71,65.1,71H43.3
	c-0.8,0-1.4-0.6-1.4-1.4C42,68.9,42.7,68.2,43.3,68.2z"/>
<path fill="none" stroke="#4FA600" stroke-miterlimit="10" d="M43.3,72.8h21.8c0.8,0,1.4,0.6,1.4,1.4s-0.6,1.4-1.4,1.4H43.3
	c-0.8,0-1.4-0.6-1.4-1.4C42,73.4,42.7,72.8,43.3,72.8z"/>
<path fill="none" stroke="#4FA600" stroke-miterlimit="10" d="M3.9,0.9h72.6v78.2H3.9V0.9z"/>
</svg>
