<?xml version="1.0" encoding="utf-8"?>
<!-- Generator: Adobe Illustrator 18.1.0, SVG Export Plug-In . SVG Version: 6.00 Build 0)  -->
<svg version="1.1" id="Layer_3" xmlns="http://www.w3.org/2000/svg" xmlns:xlink="http://www.w3.org/1999/xlink" x="0px" y="0px"
	 viewBox="0 0 80 80" enable-background="new 0 0 80 80" xml:space="preserve">
<g>
	<g>
		<path fill="#4FA600" d="M36.6,49.5h4.5c0,0,0-6,0-10.8h3l0.4-3.8h-3.4v-2.2c0-0.8,0.6-1,1-1s2.4,0,2.4,0V28h-3.3
			c-3.7,0-4.5,2.8-4.5,4.5V35h-2.1v3.8h2.1C36.6,43.6,36.6,49.5,36.6,49.5z"/>
	</g>
</g>
<g>
	<g>
		<path fill="#4FA600" d="M78.3,31.4c-0.9,0.5-1.8,0.9-2.8,1.1c-0.8-0.9-2-1.4-3.2-1.4c-2.4,0-4.4,2-4.4,4.4c0,0.3,0,0.7,0.1,1
			c-3.7-0.2-6.9-1.9-9.1-4.6c-0.4,0.7-0.6,1.4-0.6,2.2c0,1.5,0.8,2.9,2,3.7c-0.7,0-1.4-0.2-2-0.6c0,0,0,0,0,0.1
			c0,2.1,1.5,3.9,3.6,4.3c-0.4,0.1-0.8,0.2-1.2,0.2c-0.3,0-0.6,0-0.8-0.1c0.6,1.8,2.2,3,4.1,3.1c-1.5,1.2-3.4,1.9-5.5,1.9
			c-0.4,0-0.7,0-1.1-0.1c2,1.3,4.3,2,6.8,2c8.2,0,12.6-6.8,12.6-12.6c0-0.2,0-0.4,0-0.6c0.9-0.6,1.6-1.4,2.2-2.3
			c-0.8,0.4-1.6,0.6-2.5,0.7C77.3,33.3,78,32.4,78.3,31.4z"/>
	</g>
</g>
<g>
	<g>
		<path fill="#4FA600" d="M17.6,43.1h0.9c0.2,0,0.5-0.2,0.5-0.5v-3.3h3.3c0.2,0,0.5-0.2,0.5-0.5V38c0-0.2-0.2-0.5-0.5-0.5H19v-3.3
			c0-0.2-0.2-0.5-0.5-0.5h-0.9c-0.2,0-0.5,0.2-0.5,0.5v3.3h-3.3c-0.2,0-0.5,0.2-0.5,0.5v0.9c0,0.2,0.2,0.5,0.5,0.5h3.3v3.3
			C17.2,42.9,17.4,43.1,17.6,43.1z"/>
		<path fill="#4FA600" d="M4.8,48.7C5.6,48.9,6.5,49,7.4,49c0.8,0,1.6-0.1,2.3-0.3c2.3-0.7,3.7-2.3,3.7-4.3c0-1.9-0.6-3-2.2-4.1
			C10.6,39.9,10,39.2,10,39c0-0.4,0-0.6,0.9-1.3c1.2-0.9,1.8-2.1,1.8-3.3c0-1.1-0.3-2.1-0.9-2.9h0.5c0.1,0,0.2,0,0.3-0.1l1.3-0.9
			c0.2-0.1,0.2-0.3,0.2-0.5s-0.2-0.3-0.4-0.3H7.8c-0.6,0-1.3,0.1-1.9,0.3c-2.1,0.7-3.5,2.5-3.5,4.3c0,2.6,2,4.5,4.7,4.6
			C7,39.1,7,39.3,7,39.5c0,0.4,0.1,0.8,0.3,1.1c0,0,0,0-0.1,0c-2.6,0-4.9,1.3-5.7,3.1c-0.2,0.5-0.3,1-0.3,1.5s0.1,0.9,0.4,1.3
			C2,47.6,3.2,48.3,4.8,48.7z M5.3,34.2c-0.1-0.9,0.1-1.8,0.5-2.3c0.3-0.3,0.7-0.5,1.2-0.5h0.1c1.3,0,2.5,1.4,2.7,3.1
			c0.1,1-0.1,1.8-0.6,2.4c-0.3,0.3-0.7,0.5-1.2,0.5l0,0l0,0C6.7,37.4,5.5,35.9,5.3,34.2z M7.7,42.1L7.7,42.1c0.5,0,0.9,0.1,1.3,0.2
			c0.1,0.1,0.3,0.2,0.4,0.3c0.9,0.6,1.5,1,1.7,1.7c0,0.2,0.1,0.3,0.1,0.5c0,1.7-1.3,2.5-3.7,2.5c-1.9,0-3.3-1.1-3.3-2.6
			C4.1,43.3,5.8,42.1,7.7,42.1z"/>
	</g>
</g>
</svg>
